<svg xmlns="http://www.w3.org/2000/svg" width="504.68" height="504.688" viewBox="0 0 504.68 504.688">
  <g id="wallet-egor" transform="translate(-0.003)">
    <g id="Group_57" data-name="Group 57" transform="translate(0.003 0)">
      <g id="Group_56" data-name="Group 56">
        <path id="Path_303" data-name="Path 303" d="M481.744,254.461V183.528a45.782,45.782,0,0,0-42.229-45.51L373.641,22.959A45.394,45.394,0,0,0,311.363,6.18L85.544,137.647H45.883A45.926,45.926,0,0,0,0,183.528v275.28a45.926,45.926,0,0,0,45.88,45.88h389.98a45.926,45.926,0,0,0,45.88-45.88V387.875a34.354,34.354,0,0,0,22.94-32.3v-68.82A34.354,34.354,0,0,0,481.744,254.461ZM412.859,137.647H312.886l74.98-43.653ZM376.47,74.087,267.294,137.647H222.01L365.147,54.311ZM322.91,26.005a22.182,22.182,0,0,1,17.037-2.3,22.49,22.49,0,0,1,13.778,10.652l.024.042L176.42,137.647H131.137ZM458.8,458.807a22.97,22.97,0,0,1-22.94,22.94H45.883a22.97,22.97,0,0,1-22.94-22.94V183.528a22.97,22.97,0,0,1,22.94-22.94h389.98a22.97,22.97,0,0,1,22.94,22.94v68.82h-68.82a68.82,68.82,0,1,0,0,137.64H458.8v68.82Zm22.941-103.23a11.478,11.478,0,0,1-11.47,11.47h-80.29a45.88,45.88,0,0,1,0-91.761h80.29a11.478,11.478,0,0,1,11.47,11.47Z" transform="translate(-0.003 0)" fill="#235577"/>
        <path id="Path_304" data-name="Path 304" d="M364.277,277.341a22.94,22.94,0,1,0,22.94,22.94A22.97,22.97,0,0,0,364.277,277.341Z" transform="translate(25.703 20.887)" fill="#f81534"/>
      </g>
    </g>
  </g>
</svg>
