<svg id="laptop_1_" data-name="laptop (1)" xmlns="http://www.w3.org/2000/svg" width="496" height="496" viewBox="0 0 496 496">
  <path id="Path_413" data-name="Path 413" d="M48,448H64v16H48Zm0,0" fill="#00524d"/>
  <path id="Path_414" data-name="Path 414" d="M80,448H96v16H80Zm0,0" fill="#00524d"/>
  <path id="Path_415" data-name="Path 415" d="M112,448h16v16H112Zm0,0" fill="#00524d"/>
  <path id="Path_416" data-name="Path 416" d="M384,448h64v16H384Zm0,0" fill="#00524d"/>
  <path id="Path_417" data-name="Path 417" d="M480,416V152a40.047,40.047,0,0,0-40-40H416a112,112,0,0,0-224,0H56a40.047,40.047,0,0,0-40,40V416H0v40a40.047,40.047,0,0,0,40,40H456a40.047,40.047,0,0,0,40-40V416ZM440,128a24.031,24.031,0,0,1,24,24V416H448V160a16.016,16.016,0,0,0-16-16H411.281a111.211,111.211,0,0,0,3.438-16ZM212.648,82.6l84.91,35.383,29.074,87.207A95.85,95.85,0,0,1,212.648,82.6ZM341.832,200.2l-28.68-86.039L377.23,50.078a95.82,95.82,0,0,1-35.4,150.121ZM304,16a95.556,95.556,0,0,1,61.93,22.762l-63.793,63.789-83.289-34.7A96.019,96.019,0,0,1,304,16ZM32,152a24.031,24.031,0,0,1,24-24H193.281a110.166,110.166,0,0,0,3.438,16H64a16.016,16.016,0,0,0-16,16V416H32ZM480,456a24.031,24.031,0,0,1-24,24H40a24.031,24.031,0,0,1-24-24V432H180.816a62.163,62.163,0,0,0,41.816,16h50.742a62.163,62.163,0,0,0,41.816-16H416V416H308.687l-2.344,2.344A46.313,46.313,0,0,1,273.367,432H222.624a46.327,46.327,0,0,1-32.977-13.656L187.312,416H64V160H202.96a111.757,111.757,0,0,0,202.078,0H432V432h48Zm0,0" fill="#00524d"/>
  <path id="Path_418" data-name="Path 418" d="M392,336a23.864,23.864,0,0,0-13.289,4.039L350.8,319.113A23.637,23.637,0,0,0,352,312a24,24,0,0,0-48,0,23.755,23.755,0,0,0,1.414,7.824l-44.8,35.848a23.522,23.522,0,0,0-26.922,1.176l-34.5-23A23.472,23.472,0,0,0,200,328a24,24,0,0,0-48,0,23.472,23.472,0,0,0,.809,5.848l-34.5,23A23.747,23.747,0,0,0,104,352a24,24,0,1,0,24,24,23.472,23.472,0,0,0-.809-5.848l34.5-23a23.552,23.552,0,0,0,28.625,0l34.5,23A23.523,23.523,0,0,0,224,376a24,24,0,0,0,48,0,23.755,23.755,0,0,0-1.414-7.824l44.8-35.848a23.688,23.688,0,0,0,25.9-.367l27.91,20.926A23.637,23.637,0,0,0,368,360a24,24,0,1,0,24-24ZM104,384a8,8,0,1,1,8-8A8.015,8.015,0,0,1,104,384Zm72-48a8,8,0,1,1,8-8A8.015,8.015,0,0,1,176,336Zm72,48a8,8,0,1,1,8-8A8.015,8.015,0,0,1,248,384Zm80-64a8,8,0,1,1,8-8A8.015,8.015,0,0,1,328,320Zm64,48a8,8,0,1,1,8-8A8.015,8.015,0,0,1,392,368Zm0,0" fill="#00524d"/>
  <path id="Path_419" data-name="Path 419" d="M208,176H80V288H208Zm-16,96H96V192h96Zm0,0" fill="#00524d"/>
  <path id="Path_420" data-name="Path 420" d="M112,208h64v16H112Zm0,0" fill="#00524d"/>
  <path id="Path_421" data-name="Path 421" d="M112,240h64v16H112Zm0,0" fill="#00524d"/>
  <path id="Path_422" data-name="Path 422" d="M224,256h16v16H224Zm0,0" fill="#00524d"/>
  <path id="Path_423" data-name="Path 423" d="M256,256H416v16H256Zm0,0" fill="#00524d"/>
</svg>
