<svg xmlns="http://www.w3.org/2000/svg" width="494" height="512" viewBox="0 0 494 512">
  <g id="taases-elsharekat" transform="translate(-9)">
    <g id="Layer_x0020_1">
      <g id="_479232288">
        <g id="Group_166" data-name="Group 166">
          <g id="Group_141" data-name="Group 141">
            <path id="Path_493" data-name="Path 493" d="M75,436c-1,0-3,0-4-1C16,406,9,369,9,367V294c0-2,0-4,2-5,1-2,3-2,5-2,38,4,54-10,54-10,3-3,7-3,9,0,1,0,16,14,54,10,2,0,4,0,5,2a5.5,5.5,0,0,1,3,5v73c-1,2-8,39-63,68A3.674,3.674,0,0,1,75,436ZM23,365c1,4,9,32,52,56,43-24,51-52,52-56V301c-28,2-45-6-52-10-8,4-24,12-52,10Z" fill="#ce451b"/>
          </g>
          <g id="Group_142" data-name="Group 142">
            <path id="Path_494" data-name="Path 494" d="M61,384a7.638,7.638,0,0,1-5-2L40,366a6.681,6.681,0,0,1,0-10c2-3,7-3,10,0l11,11,38-38a6.681,6.681,0,0,1,10,0,9.083,9.083,0,0,1,0,10L66,382C64,383,62,384,61,384Z" fill="#ce451b"/>
          </g>
          <g id="Group_143" data-name="Group 143">
            <path id="Path_495" data-name="Path 495" d="M496,512H16a6.835,6.835,0,0,1-7-7V468a6.835,6.835,0,0,1,7-7H496a6.835,6.835,0,0,1,7,7v37A6.835,6.835,0,0,1,496,512ZM23,498H489V475H23Z" fill="#ce451b"/>
          </g>
          <g id="Group_144" data-name="Group 144">
            <path id="Path_496" data-name="Path 496" d="M472,475a6.835,6.835,0,0,1-7-7V14H206V468a7,7,0,0,1-14,0V7a6.835,6.835,0,0,1,7-7H472a6.835,6.835,0,0,1,7,7V468A6.835,6.835,0,0,1,472,475Z" fill="#ce451b"/>
          </g>
          <g id="Group_145" data-name="Group 145">
            <path id="Path_497" data-name="Path 497" d="M408,475H259a6.835,6.835,0,0,1-7-7V313a17.925,17.925,0,0,1,18-18H397a17.925,17.925,0,0,1,18,18V468C415,472,411,475,408,475ZM266,461H401V313a4.3,4.3,0,0,0-4-4H270a3.663,3.663,0,0,0-4,4Z" fill="#ce451b"/>
          </g>
          <g id="Group_146" data-name="Group 146">
            <path id="Path_498" data-name="Path 498" d="M333,475a6.835,6.835,0,0,1-7-7V302a7,7,0,0,1,14,0V468C340,472,336,475,333,475Z" fill="#ce451b"/>
          </g>
          <g id="Group_150" data-name="Group 150">
            <g id="Group_147" data-name="Group 147">
              <path id="Path_499" data-name="Path 499" d="M278,85H237a6.835,6.835,0,0,1-7-7V45a6.835,6.835,0,0,1,7-7h41a6.835,6.835,0,0,1,7,7V78A6.835,6.835,0,0,1,278,85ZM244,71h27V52H244Z" fill="#ce451b"/>
            </g>
            <g id="Group_148" data-name="Group 148">
              <path id="Path_500" data-name="Path 500" d="M356,85H315a6.835,6.835,0,0,1-7-7V45a6.835,6.835,0,0,1,7-7h41a6.835,6.835,0,0,1,7,7V78A6.835,6.835,0,0,1,356,85ZM322,71h27V52H322Z" fill="#ce451b"/>
            </g>
            <g id="Group_149" data-name="Group 149">
              <path id="Path_501" data-name="Path 501" d="M434,85H393a6.835,6.835,0,0,1-7-7V45a6.835,6.835,0,0,1,7-7h41a6.835,6.835,0,0,1,7,7V78A6.835,6.835,0,0,1,434,85ZM400,71h27V52H400Z" fill="#ce451b"/>
            </g>
          </g>
          <g id="Group_154" data-name="Group 154">
            <g id="Group_151" data-name="Group 151">
              <path id="Path_502" data-name="Path 502" d="M278,147H237a6.835,6.835,0,0,1-7-7V107a6.835,6.835,0,0,1,7-7h41a6.835,6.835,0,0,1,7,7v33A6.835,6.835,0,0,1,278,147Zm-34-14h27V114H244Z" fill="#ce451b"/>
            </g>
            <g id="Group_152" data-name="Group 152">
              <path id="Path_503" data-name="Path 503" d="M356,147H315a6.835,6.835,0,0,1-7-7V107a6.835,6.835,0,0,1,7-7h41a6.835,6.835,0,0,1,7,7v33A6.835,6.835,0,0,1,356,147Zm-34-14h27V114H322Z" fill="#ce451b"/>
            </g>
            <g id="Group_153" data-name="Group 153">
              <path id="Path_504" data-name="Path 504" d="M434,147H393a6.835,6.835,0,0,1-7-7V107a6.835,6.835,0,0,1,7-7h41a6.835,6.835,0,0,1,7,7v33A6.835,6.835,0,0,1,434,147Zm-34-14h27V114H400Z" fill="#ce451b"/>
            </g>
          </g>
          <g id="Group_158" data-name="Group 158">
            <g id="Group_155" data-name="Group 155">
              <path id="Path_505" data-name="Path 505" d="M278,209H237a6.835,6.835,0,0,1-7-7V169a6.835,6.835,0,0,1,7-7h41a6.835,6.835,0,0,1,7,7v33A6.835,6.835,0,0,1,278,209Zm-34-14h27V176H244Z" fill="#ce451b"/>
            </g>
            <g id="Group_156" data-name="Group 156">
              <path id="Path_506" data-name="Path 506" d="M356,209H315a6.835,6.835,0,0,1-7-7V169a6.835,6.835,0,0,1,7-7h41a6.835,6.835,0,0,1,7,7v33A6.835,6.835,0,0,1,356,209Zm-34-14h27V176H322Z" fill="#ce451b"/>
            </g>
            <g id="Group_157" data-name="Group 157">
              <path id="Path_507" data-name="Path 507" d="M434,209H393a6.835,6.835,0,0,1-7-7V169a6.835,6.835,0,0,1,7-7h41a6.835,6.835,0,0,1,7,7v33A6.835,6.835,0,0,1,434,209Zm-34-14h27V176H400Z" fill="#ce451b"/>
            </g>
          </g>
          <g id="Group_162" data-name="Group 162">
            <g id="Group_159" data-name="Group 159">
              <path id="Path_508" data-name="Path 508" d="M278,271H237a6.835,6.835,0,0,1-7-7V231a6.835,6.835,0,0,1,7-7h41a6.835,6.835,0,0,1,7,7v33A6.835,6.835,0,0,1,278,271Zm-34-14h27V238H244Z" fill="#ce451b"/>
            </g>
            <g id="Group_160" data-name="Group 160">
              <path id="Path_509" data-name="Path 509" d="M356,271H315a6.835,6.835,0,0,1-7-7V231a6.835,6.835,0,0,1,7-7h41a6.835,6.835,0,0,1,7,7v33A6.835,6.835,0,0,1,356,271Zm-34-14h27V238H322Z" fill="#ce451b"/>
            </g>
            <g id="Group_161" data-name="Group 161">
              <path id="Path_510" data-name="Path 510" d="M434,271H393a6.835,6.835,0,0,1-7-7V231a6.835,6.835,0,0,1,7-7h41a6.835,6.835,0,0,1,7,7v33A6.835,6.835,0,0,1,434,271Zm-34-14h27V238H400Z" fill="#ce451b"/>
            </g>
          </g>
          <g id="Group_163" data-name="Group 163">
            <path id="Path_511" data-name="Path 511" d="M40,475a6.835,6.835,0,0,1-7-7V405a7,7,0,0,1,14,0v63A6.835,6.835,0,0,1,40,475Zm0-174a6.835,6.835,0,0,1-7-7V101a6.835,6.835,0,0,1,7-7H199a7,7,0,0,1,0,14H47V294A6.835,6.835,0,0,1,40,301Z" fill="#ce451b"/>
          </g>
          <g id="Group_164" data-name="Group 164">
            <path id="Path_512" data-name="Path 512" d="M167,175H71a6.835,6.835,0,0,1-7-7V131a6.835,6.835,0,0,1,7-7h96a6.835,6.835,0,0,1,7,7v37A6.835,6.835,0,0,1,167,175ZM78,161h82V138H78Z" fill="#ce451b"/>
          </g>
          <g id="Group_165" data-name="Group 165">
            <path id="Path_513" data-name="Path 513" d="M167,244H71a6.835,6.835,0,0,1-7-7V200a6.835,6.835,0,0,1,7-7h96a6.835,6.835,0,0,1,7,7v37A6.835,6.835,0,0,1,167,244ZM78,230h82V207H78Z" fill="#ce451b"/>
          </g>
        </g>
      </g>
    </g>
  </g>
</svg>
