<svg xmlns="http://www.w3.org/2000/svg" width="414.807" height="436.001" viewBox="0 0 414.807 436.001">
  <g id="profit" transform="translate(-12.443)">
    <g id="Group_168" data-name="Group 168" transform="translate(12.443 0)">
      <path id="Path_525" data-name="Path 525" d="M125.187,49.455a27,27,0,1,0,27,27A27.034,27.034,0,0,0,125.187,49.455Zm0,41.234a14.23,14.23,0,1,1,14.23-14.23A14.246,14.246,0,0,1,125.187,90.689Z" transform="translate(-25.17 -7.341)" fill="#4f4f4f"/>
      <path id="Path_526" data-name="Path 526" d="M148.038,217.788V193.1a6.386,6.386,0,0,0-6.387-6.387H76.6A6.386,6.386,0,0,0,70.21,193.1v24.688a6.386,6.386,0,0,0,6.387,6.387h65.055A6.386,6.386,0,0,0,148.038,217.788ZM135.264,211.4H82.983V199.487h52.282V211.4Z" transform="translate(-21.018 -27.715)" fill="#4f4f4f"/>
      <path id="Path_527" data-name="Path 527" d="M408.69,53.017H368.15a18.739,18.739,0,0,0-16.408,9.714H181.577V58.681a6.386,6.386,0,0,0-5.071-6.25l-15.563-3.277c-.028-.068-.056-.136-.085-.2l8.688-13.322a6.385,6.385,0,0,0-.834-8L153.954,12.865a6.386,6.386,0,0,0-8.006-.834L132.626,20.72l-.2-.085L129.145,5.071A6.386,6.386,0,0,0,122.9,0H102.023a6.386,6.386,0,0,0-6.25,5.071L92.5,20.635l-.2.085L78.971,12.031a6.389,6.389,0,0,0-8.006.834L56.206,27.623a6.388,6.388,0,0,0-.834,8.006l8.689,13.323c-.028.068-.056.135-.085.2L48.413,52.432a6.386,6.386,0,0,0-5.071,6.25V62.73h-.169A30.765,30.765,0,0,0,12.443,93.46V292.132a30.765,30.765,0,0,0,30.729,30.729h24.2a45.819,45.819,0,0,0,45.089,39.15,45.268,45.268,0,0,0,18.592-3.984L116.6,414.549c-5.736,22.44,30.017,30.064,35.527,8.516l25.61-100.2h20.793v95.944a17.194,17.194,0,1,0,34.388,0V322.861h20.794l25.609,100.2c5.505,21.544,41.265,13.933,35.527-8.515l-23.432-91.686h96.865a30.765,30.765,0,0,0,30.729-30.729v-138a6.387,6.387,0,0,0-12.773,0v138a17.976,17.976,0,0,1-17.956,17.956H157.542a45.537,45.537,0,0,0-90.173,0h-24.2a17.976,17.976,0,0,1-17.956-17.956v-185.5H54.367a6.367,6.367,0,0,0,1.839,3.98L70.966,125.37a6.387,6.387,0,0,0,8,.834l13.322-8.689.2.085,3.277,15.564a6.386,6.386,0,0,0,6.25,5.071H122.9a6.386,6.386,0,0,0,6.25-5.071l3.277-15.564.2-.085,13.322,8.689a6.386,6.386,0,0,0,8.006-.834l14.758-14.758a6.366,6.366,0,0,0,1.839-3.98H347.138L287.6,166.171,257.018,135.6a12.4,12.4,0,0,0-17.436-.009l-19.853,19.852a6.386,6.386,0,0,0,9.031,9.033L248.3,144.939l30.591,30.583a12.406,12.406,0,0,0,17.427,0L383.23,88.6a6.387,6.387,0,0,0-4.517-10.9H368.148c-7.681,0-7.673-11.91,0-11.91h40.54a5.789,5.789,0,0,1,5.787,5.778v40.54a5.96,5.96,0,1,1-11.919,0V101.552a6.387,6.387,0,0,0-10.9-4.517L287.6,201.078l-30.594-30.586a12.351,12.351,0,0,0-17.428,0l-52.416,52.425c-5.366,5.374-13.861-2.983-8.42-8.428l28.73-28.728a6.387,6.387,0,0,0-9.032-9.033l-28.73,28.728a18.731,18.731,0,0,0,26.49,26.489l52.094-52.1,30.591,30.582a12.413,12.413,0,0,0,17.426.008l93.981-93.973a18.734,18.734,0,0,0,36.956-4.351V71.568a18.575,18.575,0,0,0-18.56-18.551ZM139.756,419.9c-1.416,5.541-12.385,4.107-10.775-2.188l18.42-72.075a45.35,45.35,0,0,0,10.14-22.775h7.016Zm80.393-1.093c0,5.688-8.842,5.7-8.842,0V322.862h8.842Zm82.328-1.1c1.606,6.28-9.36,7.725-10.775,2.189l-24.8-97.038h11.335ZM105.063,284.547a33.153,33.153,0,0,1,7.395-.835,32.8,32.8,0,0,1,32.767,32.751v.022a32.765,32.765,0,1,1-40.162-31.939ZM25.216,93.46A17.976,17.976,0,0,1,43.172,75.5h.169v4.05a6.386,6.386,0,0,0,5.071,6.25L63.977,89.08c.028.068.056.135.085.2l-2.984,4.575H25.216Zm123.369,19.213-11.931-7.782c-4.333-2.824-14.956,1.633-16.008,6.634l-2.934,13.936H107.206l-2.934-13.936c-1.064-5.062-11.729-9.424-16.008-6.634l-11.931,7.782-7.431-7.43,7.782-11.931c2.823-4.332-1.632-14.956-6.633-16.008L56.115,74.37V63.864L70.052,60.93c5.063-1.064,9.422-11.729,6.633-16.008L68.9,32.991l7.431-7.431,11.931,7.782c4.332,2.824,14.956-1.632,16.008-6.633l2.934-13.937h10.507l2.934,13.937c1.064,5.062,11.729,9.423,16.008,6.633l11.931-7.782,7.43,7.431-7.782,11.931c-2.825,4.331,1.634,14.957,6.634,16.008L168.8,63.864V74.371L154.868,77.3c-5.061,1.064-9.424,11.729-6.634,16.008l7.782,11.931ZM363.8,89.968l-3.889,3.889H163.841l-2.983-4.574c.028-.068.056-.136.085-.2L176.506,85.8a6.386,6.386,0,0,0,5.071-6.25V75.5H349.8a18.878,18.878,0,0,0,14,14.465Z" transform="translate(-12.443 0)" fill="#4f4f4f"/>
      <path id="Path_528" data-name="Path 528" d="M414.51,314.018H293.467a6.387,6.387,0,0,0,0,12.773H414.51a6.387,6.387,0,0,0,0-12.773Z" transform="translate(-53.209 -46.612)" fill="#4f4f4f"/>
      <path id="Path_529" data-name="Path 529" d="M423.1,281.113H351.339a6.387,6.387,0,0,0,0,12.773H423.1a6.387,6.387,0,0,0,0-12.773Z" transform="translate(-61.8 -41.728)" fill="#4f4f4f"/>
      <path id="Path_530" data-name="Path 530" d="M76.6,244.189a6.387,6.387,0,0,0,0,12.773h44.438a6.387,6.387,0,0,0,0-12.773Z" transform="translate(-21.018 -36.247)" fill="#4f4f4f"/>
      <path id="Path_531" data-name="Path 531" d="M128.782,384.025a6.386,6.386,0,0,0,6.387-6.387V360.413a6.387,6.387,0,1,0-12.773,0v17.225A6.386,6.386,0,0,0,128.782,384.025Z" transform="translate(-28.764 -52.551)" fill="#4f4f4f"/>
    </g>
  </g>
</svg>
