<?xml version="1.0" encoding="utf-8"?>
<!-- Generator: Adobe Illustrator 22.0.0, SVG Export Plug-In . SVG Version: 6.00 Build 0)  -->
<svg version="1.1" id="Layer_1" xmlns="http://www.w3.org/2000/svg" xmlns:xlink="http://www.w3.org/1999/xlink" x="0px" y="0px"
	 viewBox="0 0 570 570" style="enable-background:new 0 0 570 570;" xml:space="preserve">
<style type="text/css">
	.st0{fill:none;}
	.st1{fill:#FFB315;}
</style>
<g id="estshara" transform="translate(-888 -736)">
	<rect id="Rectangle_2875" x="888" y="736" class="st0" width="570" height="570"/>
	<g id="estshara-2" transform="translate(899 747)">
		<path id="Path_429" class="st1" d="M488.6,194.6h-21.1C467.5,87.9,380.6,1,273.9,1c-28-0.1-55.6,6-81,17.8
			c-1.2-0.1-2.3-0.2-3.5-0.2H59.1C27,18.6,1,44.7,1,76.9c0,2.7,0.2,5.4,0.6,8.1l10.9,76.2c4.3,29.3,29.4,51,59,51.1h9.6
			c5,56.6,34.8,108.1,81.5,140.6c14.8,10.4,26.3,24.7,33.2,41.3c-11.3,9-13.2,25.5-4.2,36.8c0.3,0.4,0.7,0.9,1.1,1.3
			c-9,10-9,25.2,0,35.2c-9.7,10.8-8.8,27.4,2,37.1c3.2,2.8,7,4.9,11.1,5.9c7.9,21.7,28.6,36.1,51.7,36.1h33
			c23.1,0,43.7-14.4,51.7-36.1c14.1-3.6,22.6-17.9,19-32c-1-4.1-3.1-7.9-5.9-11.1c9-10,9-25.2,0-35.2c9.7-10.7,8.8-27.3-1.9-37
			c-0.4-0.4-0.8-0.7-1.3-1.1c1.1-2.7,2.4-5.3,3.7-7.9c4.9,1.3,9.9,1.9,15,2h26.4v26.4c0,3.6,2.1,6.8,5.4,8.1
			c1.1,0.4,2.2,0.7,3.4,0.7c2.3,0,4.6-0.9,6.2-2.6l32.6-32.6h31.6c29.6-0.1,54.6-21.9,58.9-51.1l10.9-76.2c0.4-2.7,0.6-5.5,0.6-8.2
			C546.7,220.7,520.7,194.7,488.6,194.6z M29.9,158.6L19,82.4c-0.3-1.9-0.4-3.8-0.4-5.7c0-22.4,18.1-40.5,40.5-40.5h130.2
			c22.4,0,40.5,18.1,40.5,40.5c0,1.9-0.1,3.8-0.4,5.7l-10.9,76.2c-3,20.6-20.7,35.9-41.5,36h-35.2c-4.9,0-8.8,3.9-8.8,8.8
			c0,0,0,0,0,0v14l-20.2-20.2c-1.6-1.7-3.9-2.6-6.2-2.6H71.4C50.6,194.6,32.9,179.2,29.9,158.6z M172.7,338.5
			c-42-29.2-69-75.4-74-126.2h4.3l32.6,32.6c1.7,1.6,3.9,2.6,6.2,2.6c1.2,0,2.3-0.2,3.4-0.7c3.3-1.4,5.4-4.6,5.4-8.1v-26.4H177
			c29.6-0.1,54.6-21.9,58.9-51.1L246.9,85c0.4-2.7,0.6-5.5,0.6-8.2c0-20.2-10.6-39-27.9-49.5c17.5-5.7,35.9-8.6,54.3-8.6
			c97.1,0,176,79,176,176c-0.1,57.3-28,110.9-74.9,143.8c-17.7,12.5-31.5,29.7-39.6,49.8H212.3C204.2,368.2,190.4,350.9,172.7,338.5
			L172.7,338.5z M290.4,529.1h-33c-12.9,0-25-6.6-31.8-17.6h96.7C315.3,522.5,303.3,529.1,290.4,529.1L290.4,529.1z M335.5,493.9
			H212.2c-4.9,0-8.8-3.9-8.8-8.8c0-4.9,3.9-8.8,8.8-8.8h123.2c4.9,0,8.8,3.9,8.8,8.8C344.3,490,340.3,493.9,335.5,493.9z
			 M335.5,458.7H212.2c-4.9,0-8.8-3.9-8.8-8.8c0-4.9,3.9-8.8,8.8-8.8h123.2c4.9,0,8.8,3.9,8.8,8.8
			C344.3,454.8,340.3,458.7,335.5,458.7z M335.5,423.5H212.2c-4.9,0-8.8-3.9-8.8-8.8c0-4.9,3.9-8.8,8.8-8.8h123.2
			c4.9,0,8.8,3.9,8.8,8.8C344.3,419.5,340.3,423.5,335.5,423.5z M528.7,258.5l-10.9,76.2c-3,20.6-20.7,35.9-41.5,36h-35.2
			c-2.3,0-4.6,0.9-6.2,2.6l-20.2,20.2v-14c0-4.9-3.9-8.8-8.8-8.8c0,0,0,0,0,0h-35.2c-1.4-0.1-2.8-0.2-4.2-0.4
			c5.4-6.6,11.7-12.5,18.7-17.4c10.9-7.7,20.9-16.5,30-26.2h87.5v-17.6h-72.9c8.1-11,15-22.8,20.6-35.2h52.3v-17.6h-45.4
			c4.8-14.3,7.9-29,9.3-44h22c22.4,0,40.5,18.1,40.5,40.5C529.1,254.7,529,256.6,528.7,258.5L528.7,258.5z"/>
		<path id="Path_430" class="st1" d="M217.4,273.9c0-13.1-10.6-23.7-23.7-23.7c-13.1,0-23.7,10.6-23.7,23.7
			c0,13.1,10.6,23.7,23.7,23.7C206.8,297.5,217.4,286.9,217.4,273.9z M185.9,273.9c0-4.4,3.5-7.9,7.9-7.9s7.9,3.5,7.9,7.9
			s-3.5,7.9-7.9,7.9C189.4,281.7,185.9,278.2,185.9,273.9z"/>
		<path id="Path_431" class="st1" d="M273.9,297.5c13.1,0,23.7-10.6,23.7-23.7c0-13.1-10.6-23.7-23.7-23.7
			c-13.1,0-23.7,10.6-23.7,23.7C250.2,286.9,260.8,297.5,273.9,297.5z M273.9,266c4.4,0,7.9,3.5,7.9,7.9s-3.5,7.9-7.9,7.9
			s-7.9-3.5-7.9-7.9C266,269.5,269.5,266,273.9,266z"/>
		<path id="Path_432" class="st1" d="M354,297.5c13.1,0,23.7-10.6,23.7-23.7c0-13.1-10.6-23.7-23.7-23.7s-23.7,10.6-23.7,23.7
			C330.3,286.9,340.9,297.5,354,297.5z M354,266c4.4,0,7.9,3.5,7.9,7.9s-3.5,7.9-7.9,7.9s-7.9-3.5-7.9-7.9
			C346.1,269.5,349.6,266,354,266z"/>
		<path id="Path_433" class="st1" d="M91.4,72H194v15.8H91.4V72z"/>
		<path id="Path_434" class="st1" d="M40.4,133.5h142v15.8h-142V133.5z"/>
	</g>
</g>
</svg>
