<svg xmlns="http://www.w3.org/2000/svg" width="570" height="570" viewBox="0 0 570 570">
  <g id="kanon-white" transform="translate(-1645 -736)">
    <rect id="Rectangle_2874" data-name="Rectangle 2874" width="570" height="570" transform="translate(1645 736)" fill="none"/>
    <g id="kanon" transform="translate(1656.998 748)">
      <g id="Group_109" data-name="Group 109" transform="translate(0.002 -0.001)">
        <path id="Path_436" data-name="Path 436" d="M544.8,332.757l.082-.027-89.6-195.49,21.728-10.814-8.131-16.28L447.7,120.7l-2.865-6.248a9.095,9.095,0,0,0-16.535,0l-2.556,5.584a117,117,0,0,0-49.2-10.887h-76.4V90.955h18.19V72.765H302.7L309.235,46.6a37.5,37.5,0,1,0-72.761,0l6.539,26.167H227.379v18.19h18.19v18.19H169.216a117,117,0,0,0-49.25,10.914l-2.556-5.584a9.095,9.095,0,0,0-16.535,0l-2.865,6.248-21.182-10.6-8.131,16.3,21.728,10.86L.83,332.73A8.882,8.882,0,0,0,0,336.523a63.738,63.738,0,0,0,63.666,63.666h90.951a63.738,63.738,0,0,0,63.666-63.666,8.89,8.89,0,0,0-.91-3.765L127.533,136.531a98.929,98.929,0,0,1,41.683-9.2h76.353V460.088l-31.051,31.051H181.9a45.53,45.53,0,0,0-45.475,45.475,9.1,9.1,0,0,0,9.1,9.1H400.185a9.1,9.1,0,0,0,9.1-9.1,45.53,45.53,0,0,0-45.475-45.475H331.19L300.14,460.088V127.336h76.4a98.929,98.929,0,0,1,41.683,9.2l-89.969,196.2a8.882,8.882,0,0,0-.828,3.793,63.738,63.738,0,0,0,63.666,63.666h90.951a63.738,63.738,0,0,0,63.666-63.666A8.858,8.858,0,0,0,544.8,332.757ZM154.618,382H63.668A45.549,45.549,0,0,1,19.1,345.618H199.184A45.548,45.548,0,0,1,154.618,382Zm40.4-54.57H23.267l83.547-182.274a8.984,8.984,0,0,0,4.657,0Zm62.62-301.811a19.9,19.9,0,0,1,30.432,0,19.2,19.2,0,0,1,3.52,16.571l-7.649,30.578H261.767l-7.649-30.578A19.2,19.2,0,0,1,257.638,25.616Zm6.121,83.529V90.955h18.19v18.19Zm18.19,18.19V454.759h-18.19V127.336Zm81.856,381.993a27.339,27.339,0,0,1,25.73,18.19H156.174a27.339,27.339,0,0,1,25.73-18.19Zm-58.336-18.19h-65.23l18.19-18.19h28.85ZM434.219,145.18a6.209,6.209,0,0,0,4.6-.191l83.62,182.438H350.69ZM482.041,382H391.09a45.549,45.549,0,0,1-44.566-36.38H526.607A45.548,45.548,0,0,1,482.041,382Z" transform="translate(-0.002 0.001)" fill="#fff"/>
      </g>
    </g>
  </g>
</svg>
