<svg xmlns="http://www.w3.org/2000/svg" width="570" height="570" viewBox="0 0 570 570">
  <g id="monsha2at" transform="translate(-3243 -736)">
    <rect id="Rectangle_2872" data-name="Rectangle 2872" width="570" height="570" transform="translate(3243 736)" fill="none"/>
    <g id="monsha2at-2" data-name="monsha2at" transform="translate(3250 743)">
      <path id="Path_437" data-name="Path 437" d="M540.6,490.076H530.5V95.952a10.106,10.106,0,0,0-10.106-10.106H409.23V65.634h10.106a10.106,10.106,0,0,0,10.106-10.106V15.106A10.106,10.106,0,0,0,419.335,5H136.375a10.106,10.106,0,0,0-10.106,10.106V55.529a10.106,10.106,0,0,0,10.106,10.106H146.48V85.846H35.317A10.106,10.106,0,0,0,25.211,95.952V490.076H15.106A10.106,10.106,0,0,0,5,500.181V540.6A10.106,10.106,0,0,0,15.106,550.71H540.6A10.106,10.106,0,0,0,550.71,540.6V500.181A10.106,10.106,0,0,0,540.6,490.076ZM510.287,106.057V490.076H409.23V106.057ZM146.48,25.211H409.23V45.423H146.48ZM45.423,106.057H146.48V490.076H45.423ZM25.211,510.287H146.48V530.5H25.211ZM227.326,530.5V409.23h40.423V530.5Zm60.634,0V409.23h40.423V530.5Zm60.634,0V399.124a10.106,10.106,0,0,0-10.106-10.106H217.221a10.106,10.106,0,0,0-10.106,10.106V530.5H166.692V65.634H389.018V530.5Zm181.9,0H409.23V510.287H530.5Z" transform="translate(0 0)" fill="#2b658c"/>
      <path id="Path_438" data-name="Path 438" d="M71.164,25H34.233A9.233,9.233,0,0,0,25,34.233V71.164A9.233,9.233,0,0,0,34.233,80.4H71.164A9.233,9.233,0,0,0,80.4,71.164V34.233A9.233,9.233,0,0,0,71.164,25ZM61.931,61.931H43.465V43.465H61.931Z" transform="translate(184.297 184.297)" fill="#2b658c"/>
      <path id="Path_439" data-name="Path 439" d="M79.164,25H42.233A9.233,9.233,0,0,0,33,34.233V71.164A9.233,9.233,0,0,0,42.233,80.4H79.164A9.233,9.233,0,0,0,88.4,71.164V34.233A9.233,9.233,0,0,0,79.164,25ZM69.931,61.931H51.465V43.465H69.931Z" transform="translate(258.016 184.297)" fill="#2b658c"/>
      <path id="Path_440" data-name="Path 440" d="M71.164,33H34.233A9.233,9.233,0,0,0,25,42.233V79.164A9.233,9.233,0,0,0,34.233,88.4H71.164A9.233,9.233,0,0,0,80.4,79.164V42.233A9.233,9.233,0,0,0,71.164,33ZM61.931,69.931H43.465V51.465H61.931Z" transform="translate(184.297 258.016)" fill="#2b658c"/>
      <path id="Path_441" data-name="Path 441" d="M79.164,33H42.233A9.233,9.233,0,0,0,33,42.233V79.164A9.233,9.233,0,0,0,42.233,88.4H79.164A9.233,9.233,0,0,0,88.4,79.164V42.233A9.233,9.233,0,0,0,79.164,33ZM69.931,69.931H51.465V51.465H69.931Z" transform="translate(258.016 258.016)" fill="#2b658c"/>
      <path id="Path_442" data-name="Path 442" d="M71.164,17H34.233A9.233,9.233,0,0,0,25,26.233V63.164A9.233,9.233,0,0,0,34.233,72.4H71.164A9.233,9.233,0,0,0,80.4,63.164V26.233A9.233,9.233,0,0,0,71.164,17ZM61.931,53.931H43.465V35.465H61.931Z" transform="translate(184.297 110.578)" fill="#2b658c"/>
      <path id="Path_443" data-name="Path 443" d="M79.164,17H42.233A9.233,9.233,0,0,0,33,26.233V63.164A9.233,9.233,0,0,0,42.233,72.4H79.164A9.233,9.233,0,0,0,88.4,63.164V26.233A9.233,9.233,0,0,0,79.164,17ZM69.931,53.931H51.465V35.465H69.931Z" transform="translate(258.016 110.578)" fill="#2b658c"/>
      <path id="Path_444" data-name="Path 444" d="M56.233,88.4H93.164a9.233,9.233,0,0,0,9.233-9.233V42.233A9.233,9.233,0,0,0,93.164,33H56.233A9.233,9.233,0,0,0,47,42.233V79.164A9.233,9.233,0,0,0,56.233,88.4Zm9.233-36.931H83.931V69.931H65.465Z" transform="translate(392.918 258.016)" fill="#2b658c"/>
      <path id="Path_445" data-name="Path 445" d="M56.233,80.4H93.164a9.233,9.233,0,0,0,9.233-9.233V34.233A9.233,9.233,0,0,0,93.164,25H56.233A9.233,9.233,0,0,0,47,34.233V71.164A9.233,9.233,0,0,0,56.233,80.4Zm9.233-36.931H83.931V61.931H65.465Z" transform="translate(392.918 184.297)" fill="#2b658c"/>
      <path id="Path_446" data-name="Path 446" d="M56.233,72.4H93.164a9.233,9.233,0,0,0,9.233-9.233V26.233A9.233,9.233,0,0,0,93.164,17H56.233A9.233,9.233,0,0,0,47,26.233V63.164A9.233,9.233,0,0,0,56.233,72.4Zm9.233-36.931H83.931V53.931H65.465Z" transform="translate(392.918 110.578)" fill="#2b658c"/>
      <path id="Path_447" data-name="Path 447" d="M56.233,96.4H93.164a9.233,9.233,0,0,0,9.233-9.233V50.233A9.233,9.233,0,0,0,93.164,41H56.233A9.233,9.233,0,0,0,47,50.233V87.164A9.233,9.233,0,0,0,56.233,96.4Zm9.233-36.931H83.931V77.931H65.465Z" transform="translate(392.918 331.735)" fill="#2b658c"/>
      <path id="Path_448" data-name="Path 448" d="M57.164,33H20.233A9.233,9.233,0,0,0,11,42.233V79.164A9.233,9.233,0,0,0,20.233,88.4H57.164A9.233,9.233,0,0,0,66.4,79.164V42.233A9.233,9.233,0,0,0,57.164,33ZM47.931,69.931H29.465V51.465H47.931Z" transform="translate(49.396 258.016)" fill="#2b658c"/>
      <path id="Path_449" data-name="Path 449" d="M57.164,25H20.233A9.233,9.233,0,0,0,11,34.233V71.164A9.233,9.233,0,0,0,20.233,80.4H57.164A9.233,9.233,0,0,0,66.4,71.164V34.233A9.233,9.233,0,0,0,57.164,25ZM47.931,61.931H29.465V43.465H47.931Z" transform="translate(49.396 184.297)" fill="#2b658c"/>
      <path id="Path_450" data-name="Path 450" d="M57.164,17H20.233A9.233,9.233,0,0,0,11,26.233V63.164A9.233,9.233,0,0,0,20.233,72.4H57.164A9.233,9.233,0,0,0,66.4,63.164V26.233A9.233,9.233,0,0,0,57.164,17ZM47.931,53.931H29.465V35.465H47.931Z" transform="translate(49.396 110.578)" fill="#2b658c"/>
      <path id="Path_451" data-name="Path 451" d="M57.164,41H20.233A9.233,9.233,0,0,0,11,50.233V87.164A9.233,9.233,0,0,0,20.233,96.4H57.164A9.233,9.233,0,0,0,66.4,87.164V50.233A9.233,9.233,0,0,0,57.164,41ZM47.931,77.931H29.465V59.465H47.931Z" transform="translate(49.396 331.735)" fill="#2b658c"/>
    </g>
  </g>
</svg>
