<svg xmlns="http://www.w3.org/2000/svg" width="570" height="570" viewBox="0 0 570 570">
  <g id="mosa3da" transform="translate(-146 -736)">
    <rect id="Rectangle_2876" data-name="Rectangle 2876" width="570" height="570" transform="translate(146 736)" fill="none"/>
    <path id="mosa3da-2" data-name="mosa3da" d="M545.709,228.846H525.931l-29.478,15.511a43.758,43.758,0,0,0-10.491-4.315l-37.081-9.279v-4.216A61.81,61.81,0,0,0,475.3,176.035V160.649c0-34.193-26.792-62.807-59.721-63.8-1.672-.043-3.318.017-4.972.1l9.614-22.507-46.609-46.6L346.131,45.724a148.88,148.88,0,0,0-32.946-13.667L306.4,0H239.319l-6.786,32.065a148.709,148.709,0,0,0-32.946,13.667L172.111,27.849l-46.57,46.57,9.451,22.524c-.361-.017-.7-.082-1.066-.09a61.638,61.638,0,0,0-63.512,61.578v17.6a61.786,61.786,0,0,0,26.405,50.5v4.225L72.632,236.81,28.79,211.242H0V393.626l86.591,28.859h16.864l2.106-7.375L132.1,431.042a27.4,27.4,0,0,0,26.427,26.551A27.4,27.4,0,0,0,184.936,484,27.4,27.4,0,0,0,211.341,510.4a27.374,27.374,0,0,0,42.8,21.734l7.8,6.885a26.8,26.8,0,0,0,17.711,6.687h1.629a26.8,26.8,0,0,0,26.749-26.44,26.773,26.773,0,0,0,26.405-26.405,26.772,26.772,0,0,0,26.405-26.431,27.066,27.066,0,0,0,26.44-27.007,25.766,25.766,0,0,0-.133-2.639l158.565-79.276Zm-88.018-68.2v15.386a44.18,44.18,0,0,1-22.03,38.087l-4.4,2.544.034,27.854L475.27,255.5,378.476,306.45V282.739a43.794,43.794,0,0,0-12.605-30.673l30.209-7.547V216.645l-4.392-2.54a44.132,44.132,0,0,1-22.013-38.069v-17.6a44.007,44.007,0,0,1,45.371-43.983c23.513.7,42.646,21.433,42.646,46.2ZM286.126,299.53,246.281,286.8a108.694,108.694,0,0,0-56.4-2.57l-5.046,1.117v-2.6a26.386,26.386,0,0,1,20-25.623l50.417-12.6V216.644l-4.392-2.54a44.132,44.132,0,0,1-22.013-38.069v-17.6a44.007,44.007,0,0,1,45.371-43.983c23.513.7,42.646,21.433,42.646,46.2v15.386a44.179,44.179,0,0,1-22.03,38.087l-4.4,2.544.034,27.854,50.408,12.6a26.386,26.386,0,0,1,20,25.623V315.72l-2.175,1.143H353.3L299.191,301.4a55.481,55.481,0,0,0-13.065-1.87Zm-99.316-167.8a96.752,96.752,0,0,1,171.729-.709,61.213,61.213,0,0,0-6.468,27.407v17.6a61.786,61.786,0,0,0,26.405,50.5v4.225l-35.207,8.815-35.216-8.815v-4.216a61.81,61.81,0,0,0,26.414-50.511V160.648c0-34.193-26.792-62.807-59.721-63.8a61.624,61.624,0,0,0-63.5,61.587v17.6a61.786,61.786,0,0,0,26.405,50.5v4.225l-35.207,8.815-35.216-8.815v-4.216a61.81,61.81,0,0,0,26.414-50.511V160.648a64.873,64.873,0,0,0-6.829-28.915ZM146.329,78.5l28.12-28.12L199.2,66.489l4.736-2.905a131.343,131.343,0,0,1,38.112-15.807l5.415-1.3L253.587,17.6H292.13l6.107,28.868,5.415,1.294a131.471,131.471,0,0,1,38.112,15.811l4.736,2.905,24.751-16.108,28.086,28.094-9.984,23.375a61.522,61.522,0,0,0-18.579,12.352c-.361.352-.67.731-1.023,1.092a114.305,114.305,0,0,0-194.129.529,62.084,62.084,0,0,0-19.417-13.766ZM114.422,244.519V216.644l-4.392-2.54a44.132,44.132,0,0,1-22.013-38.069v-17.6a44.007,44.007,0,0,1,45.371-43.983c23.513.7,42.646,21.433,42.646,46.2v15.386A44.18,44.18,0,0,1,154,214.122l-4.4,2.544.034,27.854,30.2,7.547a43.794,43.794,0,0,0-12.605,30.673v6.52l-27.454,6.1.713-2.493.335-16.267-46.42-27.08ZM17.6,228.846H24.02l63.3,36.922L55.38,393.526,17.6,380.93ZM89.444,404.881,72.12,399.109,103.149,275l20.075,11.707v2.514L90.183,404.88Zm60.185,25.34a9.935,9.935,0,0,1,2.888-6.98l15.472-15.472a9.871,9.871,0,0,1,13.959,13.959L166.477,437.2a9.871,9.871,0,0,1-16.847-6.98Zm26.405,26.405a9.935,9.935,0,0,1,2.888-6.98l15.472-15.472a9.871,9.871,0,0,1,13.959,13.959l-15.472,15.472a9.871,9.871,0,0,1-16.847-6.98Zm26.405,26.405a9.936,9.936,0,0,1,2.888-6.98L220.8,460.58a9.871,9.871,0,0,1,13.959,13.959L219.287,490.01a9.871,9.871,0,0,1-16.847-6.98ZM238.713,519.3a9.871,9.871,0,0,1-6.98-16.847l15.472-15.472a9.871,9.871,0,0,1,13.959,13.959l-15.472,15.472A9.935,9.935,0,0,1,238.713,519.3Zm42.565,8.8h-1.629a9.121,9.121,0,0,1-6.064-2.3L267,520l6.61-6.61a27.368,27.368,0,0,0,5.544-8.179l8,6.661a9.182,9.182,0,0,1-5.879,16.233ZM360.21,448.89h-1.521a9.443,9.443,0,0,1-6.056-2.2L304.9,406.914l-11.277,13.529,46.351,38.62a9.186,9.186,0,0,1-5.888,16.233h-1.921a9.181,9.181,0,0,1-5.871-2.132l-47.808-39.836-11.277,13.529,46.351,38.624a9.173,9.173,0,0,1-5.879,16.22,14.537,14.537,0,0,1-9.262-3.352l-19.645-16.374a27.38,27.38,0,0,0-23.633-15.382,27.4,27.4,0,0,0-26.405-26.405,27.4,27.4,0,0,0-26.405-26.405,27.407,27.407,0,0,0-46.79-18.459l-15.472,15.472a27.128,27.128,0,0,0-2.467,3.013l-27.037-16.224,23.7-82.955,59.42-13.211a90.672,90.672,0,0,1,47.224,2.136L253.88,307.7l-43.957,21.979a29.339,29.339,0,0,0-16.284,26.371v1.741a29.476,29.476,0,0,0,44.654,25.279l32.775-19.654a18.169,18.169,0,0,1,21.106,2.033l74.368,66.929a9.473,9.473,0,0,1-6.331,16.512Zm167.9-102.26L379.821,420.778c-.481-.511-.984-1-1.513-1.47L303.954,352.38A35.42,35.42,0,0,0,262,348.323l-32.787,19.662a11.87,11.87,0,0,1-17.973-10.194V356.05a11.809,11.809,0,0,1,6.567-10.624l49.1-24.549a38.255,38.255,0,0,1,27.432-2.544l55.312,15.8,13.4.335,165.058-86.874Zm0,0" transform="translate(158 748)" fill="#2a2550"/>
  </g>
</svg>
