<svg xmlns="http://www.w3.org/2000/svg" width="570" height="570" viewBox="0 0 570 570">
  <g id="mostasmer-white" transform="translate(-4057 -736)">
    <rect id="Rectangle_2871" data-name="Rectangle 2871" width="570" height="570" transform="translate(4057 736)" fill="none"/>
    <g id="mostasmer" transform="translate(4070.283 748.509)">
      <g id="Group_108" data-name="Group 108" transform="translate(20.505)">
        <path id="Path_435" data-name="Path 435" d="M514.511,396.521a7.993,7.993,0,0,0,7.994-7.994V278.874A16.183,16.183,0,0,0,506.34,262.71H462.634A16.411,16.411,0,0,0,446.243,279.1v50.36h-43.88a16.4,16.4,0,0,0-14.581,8.935l-13.2-5.114a7.994,7.994,0,1,0-5.776,14.909l17.166,6.648v41.374H342.086a16.411,16.411,0,0,0-16.392,16.394v50.36H281.815a16.348,16.348,0,0,0-12.334,5.629l-10.6-62.6,8.575-12.906c5.036,3.577,9.613,7.836,17.358,5.9a14.987,14.987,0,0,0,9.783-7.855l29.973-60.067,6.922,2.681a7.994,7.994,0,1,0,5.776-14.909l-51.043-19.767V271.336A86.1,86.1,0,0,0,319.47,213.2c21.391-.951,37.339-18.064,37.339-38.434a38.209,38.209,0,0,0-9.628-25.378V114.317a114.317,114.317,0,1,0-228.634,0V150.3a36.205,36.205,0,0,0-9.622,24.469A38.547,38.547,0,0,0,146.257,213.2a85.145,85.145,0,0,0,35.126,59.474v26.392c-.095.037-112.359,43.558-112.453,43.6-1.977.812-48.425,20.532-48.425,74.82v109.98a18.126,18.126,0,0,0,18.107,18.107c293.81,0,136.166.135,475.9.135a7.993,7.993,0,0,0,7.994-7.994V425.833a7.994,7.994,0,1,0-15.988,0V529.721H462.232V279.1a.4.4,0,0,1,.4-.405H506.34a.176.176,0,0,1,.176.176V388.526A8,8,0,0,0,514.511,396.521ZM309.6,325.265l-28.788,57.7c-.59-.42-16.926-12.023-35.43-25.163l35.4-43.694ZM254.42,383.83l-8.229,12.387H221.484l-8.228-12.386,20.582-14.619Zm-57.047-82.192V281.695A93.969,93.969,0,0,0,234,289.051a85.876,85.876,0,0,0,36.242-8.01v20.672l-36.4,44.935ZM340.82,174.769A22.492,22.492,0,0,1,320.1,197.123v-44.7A22.508,22.508,0,0,1,340.82,174.769ZM145.632,197.123a22.486,22.486,0,0,1-20.718-22.354c0-11.331,9.838-20.2,20.718-21.985Zm.261-60.493a44.376,44.376,0,0,0-11.357,2.688v-25a98.329,98.329,0,1,1,196.658,0v24.3a40.123,40.123,0,0,0-11.09-2.24v-2.141c0-7.4-1.078-7.079-29.022-37.118a15.208,15.208,0,0,0-19.488-2.376c-33.265,21.73-73.343,32.1-109.6,29.5A15.257,15.257,0,0,0,145.893,136.63Zm15.728,66.317V140.235c40.176,2.691,83.233-9.092,118.187-31.764,14.369,15.439,22.213,23.572,24.308,26.271,0,82.564.017,65.5-.045,69.959A70.2,70.2,0,0,1,234,273.061C190.919,273.063,161.62,239.72,161.62,202.947Zm25.228,111.176,35.406,43.7c-11.525,8.185-29.4,20.882-35.391,25.137l-28.788-57.7ZM110.48,529.586V434.522a7.994,7.994,0,1,0-15.988,0v95.065H38.614a2.12,2.12,0,0,1-2.118-2.118V417.488c0-42.994,36.311-59.1,38.465-60.011L143.1,331.061l29.974,60.071a14.982,14.982,0,0,0,9.783,7.855c7.613,1.907,11.958-2.059,17.357-5.894L208.789,406l-20.92,123.587Zm93.6,0L223.952,412.2h19.77l19.868,117.382H204.085Zm121.612.136H281.411V479.364a.4.4,0,0,1,.405-.405H325.7Zm60.273,0H341.685V412.61a.4.4,0,0,1,.4-.405h43.883V529.722Zm60.273,0H401.957V345.857a.4.4,0,0,1,.405-.405h43.88v184.27Z" transform="translate(-20.505)" fill="#fff"/>
      </g>
    </g>
  </g>
</svg>
