<svg xmlns="http://www.w3.org/2000/svg" width="570" height="570" viewBox="0 0 570 570">
  <g id="dareba-white" transform="translate(-2442 -736)">
    <rect id="Rectangle_2873" data-name="Rectangle 2873" width="570" height="570" transform="translate(2442 736)" fill="none"/>
    <g id="dareba" transform="translate(2454.009 748)">
      <path id="Path_452" data-name="Path 452" d="M540.83,351.932A41.814,41.814,0,0,0,510.363,322.4c.315-4.163.493-8.394.493-12.669,0-38.9-12.586-80.619-35.435-117.46a7.994,7.994,0,0,0-13.587,8.428c20.994,33.847,33.035,73.589,33.035,109.033,0,4-.171,7.952-.473,11.83a41.408,41.408,0,0,0-16.944,6.294L366.9,399.613a45.737,45.737,0,0,1-32.821,6.718L244.09,390.66l47.623-28.549A46.825,46.825,0,0,0,247.1,279.868l-67.305,32.874c-.019-1-.036-2.009-.036-3.016,0-4.242.179-8.594.516-12.992A137.075,137.075,0,0,0,281.474,164.5a138.2,138.2,0,0,0-3.12-29.246c19.115-10.806,38.923-16.294,58.96-16.294,38.051,0,75.865,20.142,106.478,56.718a7.994,7.994,0,0,0,12.26-10.261c-18.788-22.448-40.208-39.265-62.912-49.76,7.163-10.775,11.721-22.024,13.3-32.986,1.888-13.145-.611-25.078-7.035-33.6a28.65,28.65,0,0,0-26.665-11.46c-.1-.9-.212-1.834-.354-2.795C370.838,24.344,367.22,16,361.631,10c-6.1-6.544-14.513-10-24.317-10S319.1,3.46,313,10c-5.589,5.993-9.207,14.34-10.749,24.808-.142.959-.258,1.894-.354,2.794a28.645,28.645,0,0,0-26.66,11.46c-6.424,8.525-8.924,20.458-7.038,33.6,1.573,10.968,6.135,22.221,13.3,33-2.539,1.18-5.069,2.429-7.585,3.771A136.984,136.984,0,0,0,47.727,67.678,136.926,136.926,0,0,0,144.55,301.425a138.835,138.835,0,0,0,19.486-1.375c-.173,3.263-.264,6.5-.264,9.676,0,3.582.124,7.151.346,10.673L126.8,338.626a50.665,50.665,0,0,0-5.645,3.2,52.532,52.532,0,0,0-23.783,40.861l-9.738,2.7q-1.532-3.747-3.091-7.508a8,8,0,0,0-8.349-4.868A168.88,168.88,0,0,0,6.756,397.543a8,8,0,0,0-3.442,9.032A1312.454,1312.454,0,0,0,50.746,540.787a8,8,0,0,0,8.348,4.865,168.685,168.685,0,0,0,69.436-24.539,7.993,7.993,0,0,0,3.437-9.027c-.435-1.485-.883-2.97-1.323-4.456l28.919-10.7,183.371,22.319a61.1,61.1,0,0,0,7.4.45A62.16,62.16,0,0,0,389.1,506.116L526.339,396.029c.086-.064.172-.13.256-.2a42.022,42.022,0,0,0,14.234-43.9ZM288,58.688c4.177-5.541,10.708-6.782,18.391-3.493a7.994,7.994,0,0,0,11.121-7.905c-.012-.174-.985-17.629,7.175-26.38,3.089-3.313,7.219-4.922,12.626-4.922s9.512,1.6,12.6,4.89c6.84,7.3,7.52,21.554,7.206,26.412a7.994,7.994,0,0,0,11.12,7.905c7.688-3.289,14.22-2.05,18.4,3.493,7.354,9.76,6.4,29.934-8.753,50.935a127.179,127.179,0,0,0-81.14-.013c-15.138-21-16.093-41.163-8.74-50.922ZM59.034,250.015A120.937,120.937,0,1,1,230.063,78.983a120.231,120.231,0,0,1,31.219,53.732,7.942,7.942,0,0,0,.376,1.429,121.686,121.686,0,0,1,3.826,30.354A120.937,120.937,0,0,1,59.033,250.015ZM516.8,383.187c-.075.056-.15.114-.224.173L379.092,493.646a46.03,46.03,0,0,1-34.222,9.734l-185.3-22.553a8,8,0,0,0-3.739.438L125.994,492.3c-5.465-17.6-11.334-35.2-17.535-52.534a7.994,7.994,0,1,0-15.053,5.386c7.723,21.59,14.936,43.594,21.468,65.5a152.44,152.44,0,0,1-51.725,18.28C46.974,489.52,32.616,448.894,20.41,408.006a152.609,152.609,0,0,1,51.73-18.282q1.663,4.055,3.281,8.082c.03.078.061.155.093.231,2.351,5.846,4.64,11.644,6.83,17.336a7.994,7.994,0,0,0,14.92-5.745q-1.776-4.616-3.636-9.318l13.872-3.843a7.993,7.993,0,0,0,5.843-8.223,36.558,36.558,0,0,1,16.546-33.03,34.624,34.624,0,0,1,3.9-2.212l120.323-58.77A30.837,30.837,0,0,1,283.495,348.4l-66.051,39.6a7.993,7.993,0,0,0,2.739,14.731l111.16,19.356a61.7,61.7,0,0,0,44.263-9.059l110.553-71.766a25.977,25.977,0,0,1,14.515-4.225h.007a8.042,8.042,0,0,0,1.007.063c.148,0,.3-.012.442-.02A26.036,26.036,0,0,1,516.8,383.187Z" transform="translate(0 0)" fill="#fff"/>
      <path id="Path_453" data-name="Path 453" d="M226.516,321.422a18.048,18.048,0,0,0,15.032,8.036,18.267,18.267,0,0,0,8.611-2.166l8.879-4.735a7.163,7.163,0,0,0-6.741-12.641l-8.879,4.735a3.868,3.868,0,0,1-5-1.2,56.444,56.444,0,0,1-7.845-18.11,7.163,7.163,0,0,0-14.065,2.72,70.054,70.054,0,0,0,10.006,23.361Z" transform="translate(16.566 21.918)" fill="#fff"/>
      <path id="Path_454" data-name="Path 454" d="M82.227,465.742a7.157,7.157,0,0,0-13.513.827c-1.744,6.212,5.309,11.35,10.728,7.958a7.214,7.214,0,0,0,2.785-8.785Z" transform="translate(-2.94 35.992)" fill="#fff"/>
      <path id="Path_455" data-name="Path 455" d="M108.841,219.424a7.167,7.167,0,0,1-6.6-9.937L154.792,84.263A7.164,7.164,0,0,1,168,89.808L115.449,215.03A7.169,7.169,0,0,1,108.841,219.424Z" transform="translate(10.255 15.793)" fill="#fff"/>
      <path id="Path_456" data-name="Path 456" d="M97.218,142.056c-16.754,0-30.384-15.319-30.384-34.146s13.63-34.146,30.384-34.146S127.6,89.082,127.6,107.909,113.971,142.056,97.218,142.056Zm0-53.967c-8.855,0-16.058,8.892-16.058,19.82s7.2,19.82,16.058,19.82,16.058-8.892,16.058-19.82S106.073,88.088,97.218,88.088Z" transform="translate(-0.867 3.687)" fill="#fff"/>
      <path id="Path_457" data-name="Path 457" d="M171.531,231.7c-16.753,0-30.384-15.319-30.384-34.146s13.63-34.147,30.384-34.147,30.384,15.319,30.384,34.147S188.284,231.7,171.531,231.7Zm0-53.967c-8.855,0-16.058,8.892-16.058,19.821s7.2,19.82,16.058,19.82,16.058-8.892,16.058-19.82S180.385,177.731,171.531,177.731Z" transform="translate(13.299 20.699)" fill="#fff"/>
      <path id="Path_458" data-name="Path 458" d="M378.717,235.062c-3.122-1.1-6-2.16-8.657-3.18V188.03a28.286,28.286,0,0,1,13.135,5.832,7.163,7.163,0,0,0,9.673-10.568,43.273,43.273,0,0,0-22.809-9.74v-9.68a7.163,7.163,0,0,0-14.326,0v10.249c-1.625.317-3.286.718-4.993,1.232-11.856,3.571-20.718,13.734-23.128,26.523-2.188,11.612,1.5,22.784,9.622,29.155,4.616,3.621,10.418,6.934,18.5,10.472v54.524c-7.845-.361-12.76-1.883-21.251-7.437a7.163,7.163,0,0,0-7.842,11.989c11.3,7.392,18.879,9.356,29.093,9.774v10.809a7.163,7.163,0,1,0,14.326,0V309.841c19.483-3.248,30.853-19.053,33.333-33.8,3.11-18.494-6.576-34.58-24.675-40.977Zm-32.641-15.3c-3.9-3.057-5.579-8.893-4.385-15.229,1.109-5.888,5.155-13.041,13.181-15.459.29-.088.574-.16.861-.24v36.851A57.531,57.531,0,0,1,346.076,219.761Zm43.188,53.9c-1.506,8.962-8.046,18.52-19.2,21.511v-48c1.258.458,2.543.922,3.881,1.4C391.056,254.619,390,269.306,389.264,273.665Z" transform="translate(28.2 19.706)" fill="#fff"/>
    </g>
  </g>
</svg>
