<svg xmlns="http://www.w3.org/2000/svg" width="570" height="570" viewBox="0 0 570 570">
  <g id="estshara" transform="translate(-888 -736)">
    <rect id="Rectangle_2875" data-name="Rectangle 2875" width="570" height="570" transform="translate(888 736)" fill="none"/>
    <g id="estshara-2" data-name="estshara" transform="translate(899 747)">
      <path id="Path_429" data-name="Path 429" d="M488.6,194.639H467.494C467.494,87.865,380.629,1,273.855,1a191.791,191.791,0,0,0-81.029,17.78c-1.162-.07-2.306-.176-3.486-.176H59.109A58.19,58.19,0,0,0,1.572,84.934L12.46,161.122a59.837,59.837,0,0,0,58.954,51.121h9.647a192.024,192.024,0,0,0,81.487,140.644,95.209,95.209,0,0,1,33.2,41.333,26.2,26.2,0,0,0-3.169,38.068,26.352,26.352,0,0,0,0,35.207,26.3,26.3,0,0,0,13.088,43.076,55.062,55.062,0,0,0,51.666,36.14h33.042a55.062,55.062,0,0,0,51.666-36.14,26.3,26.3,0,0,0,13.088-43.076,26.352,26.352,0,0,0,0-35.207,26.184,26.184,0,0,0-3.177-38.059q1.7-4.053,3.741-7.913a59.735,59.735,0,0,0,14.981,1.963H397.08v26.405a8.793,8.793,0,0,0,5.431,8.133,8.69,8.69,0,0,0,3.371.669,8.8,8.8,0,0,0,6.223-2.579l32.628-32.628H476.3a59.822,59.822,0,0,0,58.945-51.13l10.888-76.2a56.78,56.78,0,0,0,.581-8.2A58.179,58.179,0,0,0,488.6,194.639ZM29.9,158.622,19.008,82.443a41.514,41.514,0,0,1-.4-5.73A40.547,40.547,0,0,1,59.109,36.207h130.24a40.545,40.545,0,0,1,40.5,40.506,39.034,39.034,0,0,1-.414,5.73l-10.879,76.179a42.139,42.139,0,0,1-41.518,36.017H141.828a8.794,8.794,0,0,0-8.8,8.8V217.4l-20.182-20.182a8.763,8.763,0,0,0-6.223-2.579H71.414A42.139,42.139,0,0,1,29.9,158.622ZM172.679,338.486a174.569,174.569,0,0,1-73.97-126.244h4.26L135.6,244.871a8.84,8.84,0,0,0,6.232,2.579,8.69,8.69,0,0,0,3.371-.669,8.793,8.793,0,0,0,5.431-8.133V212.243h26.405a59.822,59.822,0,0,0,58.945-51.13l10.87-76.162a55.784,55.784,0,0,0,.6-8.238,58.061,58.061,0,0,0-27.884-49.528A174.759,174.759,0,0,1,273.855,18.6c97.066,0,176.035,78.97,176.035,176.035a176.093,176.093,0,0,1-74.859,143.847A112.791,112.791,0,0,0,335.4,388.278H212.313a112.791,112.791,0,0,0-39.634-49.792Zm117.7,190.62H257.334A37.568,37.568,0,0,1,225.5,511.5h96.723A37.6,37.6,0,0,1,290.376,529.106ZM335.467,493.9H212.243a8.8,8.8,0,0,1,0-17.6H335.467a8.8,8.8,0,0,1,0,17.6Zm0-35.207H212.243a8.8,8.8,0,1,1,0-17.6H335.467a8.8,8.8,0,1,1,0,17.6Zm0-35.207H212.243a8.8,8.8,0,0,1,0-17.6H335.467a8.8,8.8,0,0,1,0,17.6ZM528.7,258.469l-10.888,76.188A42.139,42.139,0,0,1,476.3,370.674H441.089a8.763,8.763,0,0,0-6.223,2.579l-20.182,20.182v-13.96a8.794,8.794,0,0,0-8.8-8.8H370.674a42.172,42.172,0,0,1-4.216-.4,95.478,95.478,0,0,1,18.7-17.384,193.831,193.831,0,0,0,30.023-26.22H502.7v-17.6H429.8a194.586,194.586,0,0,0,20.64-35.207H502.7v-17.6H457.284a192.916,192.916,0,0,0,9.321-44.009h22a40.545,40.545,0,0,1,40.5,40.506,41.293,41.293,0,0,1-.4,5.721Z" transform="translate(0)" fill="#ffc90d"/>
      <path id="Path_430" data-name="Path 430" d="M67.318,52.659A23.659,23.659,0,1,0,43.659,76.318,23.688,23.688,0,0,0,67.318,52.659Zm-31.545,0a7.886,7.886,0,1,1,7.886,7.886A7.889,7.889,0,0,1,35.773,52.659Z" transform="translate(150.097 221.196)" fill="#ffc90d"/>
      <path id="Path_431" data-name="Path 431" d="M52.659,76.318A23.659,23.659,0,1,0,29,52.659,23.688,23.688,0,0,0,52.659,76.318Zm0-31.545a7.886,7.886,0,1,1-7.886,7.886A7.889,7.889,0,0,1,52.659,44.773Z" transform="translate(221.196 221.196)" fill="#ffc90d"/>
      <path id="Path_432" data-name="Path 432" d="M61.659,76.318A23.659,23.659,0,1,0,38,52.659,23.688,23.688,0,0,0,61.659,76.318Zm0-31.545a7.886,7.886,0,1,1-7.886,7.886A7.889,7.889,0,0,1,61.659,44.773Z" transform="translate(292.295 221.196)" fill="#ffc90d"/>
      <path id="Path_433" data-name="Path 433" d="M11,10H113.523V25.773H11Z" transform="translate(80.446 61.977)" fill="#ffc90d"/>
      <path id="Path_434" data-name="Path 434" d="M6,16H147.954V31.773H6Z" transform="translate(34.432 117.484)" fill="#ffc90d"/>
    </g>
  </g>
</svg>
