<?xml version="1.0"?>
<svg xmlns="http://www.w3.org/2000/svg" xmlns:xlink="http://www.w3.org/1999/xlink" xmlns:svgjs="http://svgjs.com/svgjs" version="1.1" width="512" height="512" x="0" y="0" viewBox="0 0 512 512" style="enable-background:new 0 0 512 512" xml:space="preserve" class=""><g><g xmlns="http://www.w3.org/2000/svg"><path d="m506.27 41.305c-3.5-1.652-7.637-1.137-10.624 1.321l-136.926 112.688c-3.9 3.21-4.795 8.825-2.084 13.087l3.651 5.742-1.195.294c-10.334 2.541-21.158 1.117-30.481-4.012-20.053-11.026-43.893-11.227-64.081-.624l-2.237-1.238c-20.461-11.318-44.911-11.348-65.401-.078-9.531 5.24-20.677 7.072-31.384 5.161l-12.103-2.163 1.96-3.083c2.71-4.262 1.816-9.877-2.084-13.087l-136.927-112.687c-2.987-2.458-7.125-2.973-10.624-1.321-3.498 1.652-5.73 5.174-5.73 9.043v236.092c0 3.533 1.864 6.804 4.904 8.604l42.467 25.152c1.597.945 3.353 1.396 5.087 1.396 3.312 0 6.546-1.646 8.447-4.636l.437-.688 19.662 15.974c-2.838 10.983.028 23.149 8.614 31.734 6.349 6.349 14.656 9.566 22.996 9.668.102 8.34 3.32 16.648 9.669 22.997 6.345 6.345 14.647 9.563 22.982 9.668.104 8.688 3.529 16.842 9.684 22.997 6.151 6.151 14.3 9.576 22.982 9.684.108 8.682 3.532 16.83 9.684 22.982 6.453 6.452 14.929 9.679 23.404 9.679s16.952-3.227 23.404-9.679l13.969-13.969c.521-.521 1.013-1.06 1.492-1.606l1.458 1.458c6.453 6.452 14.927 9.678 23.403 9.678 8.477 0 16.953-3.227 23.405-9.679 4.003-4.003 6.761-8.785 8.281-13.862 4.018 1.644 8.295 2.468 12.573 2.468 8.476 0 16.951-3.227 23.404-9.679 5.169-5.168 8.261-11.636 9.29-18.361 1.648.249 3.311.377 4.975.377 8.475-.001 16.952-3.227 23.403-9.679 6.156-6.155 9.581-14.308 9.685-22.997 8.334-.105 16.636-3.324 22.982-9.668 9.633-9.633 12.072-23.775 7.323-35.695l30.291-14.964.738 1.161c1.901 2.991 5.135 4.636 8.447 4.636 1.734 0 3.49-.451 5.087-1.396l42.467-25.152c3.04-1.801 4.904-5.071 4.904-8.604v-236.091c0-3.869-2.232-7.391-5.73-9.043zm-486.27 239.435v-209.212l113.74 93.606-84.513 132.917zm79.923 59.833c0-3.499 1.363-6.788 3.837-9.262l10.781-10.781c2.553-2.554 5.907-3.83 9.261-3.83s6.708 1.276 9.262 3.83c2.474 2.474 3.836 5.763 3.836 9.262 0 3.496-1.361 6.782-3.831 9.256l-10.787 10.786c-.003.003-.006.007-.01.01-5.109 5.096-13.41 5.094-18.514-.01-2.472-2.473-3.835-5.763-3.835-9.261zm36.499 23.407c.001-.001.002-.002.003-.003l24.224-24.224c2.474-2.475 5.763-3.837 9.261-3.837s6.788 1.362 9.262 3.837c5.107 5.106 5.107 13.416 0 18.522l-24.223 24.225c-5.106 5.108-13.417 5.108-18.523 0-5.107-5.105-5.108-13.413-.004-18.52zm28.833 41.924c0-3.499 1.362-6.788 3.836-9.262l24.224-24.225c.001-.001.002-.002.003-.003 2.553-2.552 5.905-3.827 9.259-3.827s6.708 1.277 9.261 3.83c5.107 5.106 5.107 13.417 0 18.523l-24.225 24.224c-2.474 2.475-5.763 3.837-9.261 3.837s-6.788-1.362-9.262-3.837c-2.473-2.472-3.835-5.761-3.835-9.26zm68.994 27.958-13.969 13.969c-5.107 5.107-13.417 5.107-18.523 0-2.474-2.474-3.836-5.763-3.836-9.262 0-3.498 1.362-6.787 3.836-9.261l13.971-13.972c2.553-2.552 5.906-3.828 9.259-3.828 3.354 0 6.708 1.277 9.262 3.83 5.107 5.107 5.107 13.418 0 18.524zm164.351-81.549c-2.474 2.475-5.763 3.837-9.262 3.837s-6.788-1.362-9.262-3.837l-73.898-73.899c-3.905-3.903-10.235-3.904-14.143 0-3.905 3.905-3.905 10.237 0 14.143l73.898 73.899c2.475 2.474 3.837 5.763 3.837 9.262 0 3.498-1.362 6.787-3.837 9.261-5.107 5.107-13.416 5.107-18.523 0l-62.961-62.961c-3.906-3.904-10.236-3.904-14.143 0-3.905 3.905-3.905 10.237 0 14.143l57.958 57.958c5.107 5.106 5.107 13.417 0 18.523-5.106 5.107-13.417 5.107-18.523 0 0 0-44.602-44.207-45.806-44.695-3.612-1.464-7.906-.732-10.835 2.196-1.464 1.464-2.379 3.27-2.746 5.161-.61 3.152.305 6.541 2.746 8.981l30.922 30.923c5.09 5.109 5.085 13.406-.015 18.507-5.109 5.107-13.419 5.105-18.524 0l-7.456-7.457c.448-9.019-2.763-18.188-9.636-25.061-4.199-4.199-9.257-7.022-14.612-8.488 4.095-11.644 1.497-25.137-7.799-34.433-6.349-6.349-14.657-9.566-22.996-9.668-.102-8.339-3.32-16.647-9.669-22.997-6.251-6.251-14.563-9.694-23.404-9.694-5.184 0-10.182 1.192-14.694 3.432-1.6-4.83-4.308-9.258-8.01-12.96-12.905-12.904-33.903-12.903-46.808 0l-8.741 8.741-19.511-15.851 69.658-109.551 20.185 3.607c3.927.702 7.894 1.049 11.854 1.049 11.364-.001 22.657-2.856 32.687-8.373 11.205-6.162 24.084-7.506 36.031-4.083l-32.955 18.229c-9.167 5.071-15.8 13.829-18.196 24.028-2.396 10.198-.358 20.993 5.592 29.615 7.093 10.281 18.648 16.067 30.606 16.067 4.265 0 8.582-.736 12.765-2.267l67.386-24.653 90.842 90.841c2.475 2.474 3.837 5.763 3.837 9.262s-1.365 6.789-3.839 9.263zm9.071-37.737-90.285-90.284c-2.842-2.84-6.963-3.604-10.504-2.312l-.003-.009-73.38 26.846c-7.353 2.691-15.592.067-20.038-6.376-2.789-4.042-3.707-8.901-2.583-13.683 1.124-4.781 4.109-8.724 8.407-11.102l53.604-29.651c14.419-7.976 31.646-7.995 46.083-.057 13.733 7.555 29.68 9.652 44.896 5.909l7.744-1.904 67.951 106.867zm84.329-33.836-29.227 17.311-84.513-132.916 113.74-93.607z" fill="#0a3041" data-original="#000000" class=""/></g></g></svg>
