<svg width="237" height="236" viewBox="0 0 237 236" fill="none" xmlns="http://www.w3.org/2000/svg">
<path d="M118.5 235.56C95.2053 235.56 72.4338 228.652 53.065 215.711C33.6962 202.769 18.5999 184.374 9.68545 162.853C0.770961 141.331 -1.56144 117.649 2.98313 94.8023C7.5277 71.9553 18.7452 50.9688 35.217 34.497C51.6888 18.0252 72.6752 6.80773 95.5223 2.26316C118.369 -2.28141 142.051 0.0510328 163.572 8.96552C185.094 17.88 203.489 32.9762 216.431 52.345C229.372 71.7138 236.28 94.4853 236.28 117.78C236.245 149.006 223.824 178.944 201.744 201.024C179.664 223.105 149.726 235.525 118.5 235.56V235.56ZM118.5 12.1307C97.6016 12.1307 77.1726 18.3279 59.7964 29.9387C42.4202 41.5495 28.8773 58.0523 20.8804 77.3601C12.8835 96.6679 10.7917 117.914 14.8697 138.41C18.9477 158.907 29.0121 177.734 43.7903 192.51C58.5686 207.287 77.3968 217.349 97.8939 221.425C118.391 225.501 139.636 223.406 158.943 215.407C178.25 207.408 194.751 193.863 206.36 176.486C217.969 159.108 224.164 138.678 224.162 117.78C224.142 89.7594 213.005 62.8915 193.195 43.0745C173.385 23.2575 146.521 12.1111 118.5 12.0822V12.1307Z" fill="url(#paint0_linear_6_413)"/>
<path d="M46.9402 128.663L96.2869 182.287C96.7707 182.812 97.3618 183.227 98.0201 183.504C98.6784 183.781 99.3885 183.912 100.102 183.891C100.816 183.869 101.517 183.694 102.157 183.377C102.797 183.061 103.362 182.611 103.813 182.057L190.254 75.4985C190.679 74.9784 190.994 74.3774 191.179 73.7318C191.365 73.0863 191.418 72.4098 191.334 71.7434C191.25 71.077 191.031 70.4345 190.692 69.8551C190.352 69.2757 189.898 68.7714 189.357 68.3728L168.138 52.6187C167.092 51.8448 165.786 51.5105 164.497 51.6871C163.209 51.8637 162.041 52.5374 161.242 53.564L104.406 126.966C103.976 127.525 103.431 127.986 102.807 128.318C102.184 128.649 101.498 128.844 100.793 128.889C100.089 128.934 99.3827 128.827 98.7226 128.577C98.0625 128.327 97.4634 127.939 96.9655 127.439L72.5346 102.971C72.0725 102.504 71.5224 102.133 70.916 101.88C70.3096 101.627 69.6591 101.497 69.002 101.497C68.3449 101.497 67.6944 101.627 67.088 101.88C66.4817 102.133 65.9315 102.504 65.4695 102.971L47.0493 121.779C46.1457 122.69 45.6298 123.916 45.6094 125.199C45.5891 126.482 46.066 127.723 46.9402 128.663Z" fill="url(#paint1_linear_6_413)"/>
<defs>
<linearGradient id="paint0_linear_6_413" x1="35.2578" y1="34.5379" x2="201.742" y2="201.022" gradientUnits="userSpaceOnUse">
<stop stop-color="#A7D63F"/>
<stop offset="0.07" stop-color="#9FD440"/>
<stop offset="1" stop-color="#39B54A"/>
</linearGradient>
<linearGradient id="paint1_linear_6_413" x1="44.2014" y1="6.26533" x2="215.085" y2="219.164" gradientUnits="userSpaceOnUse">
<stop stop-color="#A7D63F"/>
<stop offset="0.07" stop-color="#9FD440"/>
<stop offset="1" stop-color="#39B54A"/>
</linearGradient>
</defs>
</svg>
