<svg width="98" height="98" viewBox="0 0 98 98" fill="none" xmlns="http://www.w3.org/2000/svg">
<g opacity="0.6">
<path d="M7.44035 28.5598H22.5802C23.373 28.5598 24.0157 27.9172 24.0157 27.1242C24.0157 26.3312 23.373 25.6887 22.5802 25.6887H7.44035C6.64754 25.6887 6.0048 26.3312 6.0048 27.1242C6.0048 27.9172 6.64735 28.5598 7.44035 28.5598Z" fill="#004767"/>
<path d="M22.0611 35.4708H16.0804C15.2876 35.4708 14.6449 36.1134 14.6449 36.9064C14.6449 37.6994 15.2876 38.3419 16.0804 38.3419H22.0611C22.8539 38.3419 23.4966 37.6994 23.4966 36.9064C23.4966 36.1134 22.8539 35.4708 22.0611 35.4708Z" fill="#004767"/>
<path d="M1.43555 45.4259H16.0804C16.8732 45.4259 17.516 44.7834 17.516 43.9904C17.516 43.1974 16.8732 42.5548 16.0804 42.5548H1.43555C0.642742 42.5548 0 43.1974 0 43.9904C0 44.7834 0.642742 45.4259 1.43555 45.4259Z" fill="#004767"/>
<path d="M24.0157 70.8756C24.0157 70.0826 23.373 69.4401 22.5802 69.4401H7.44035C6.64754 69.4401 6.0048 70.0826 6.0048 70.8756C6.0048 71.6686 6.64754 72.3112 7.44035 72.3112H22.5802C23.373 72.3112 24.0157 71.6686 24.0157 70.8756Z" fill="#004767"/>
<path d="M22.0611 59.6581H16.0804C15.2876 59.6581 14.6449 60.3006 14.6449 61.0936C14.6449 61.8866 15.2876 62.5292 16.0804 62.5292H22.0611C22.8539 62.5292 23.4966 61.8866 23.4966 61.0936C23.4966 60.3006 22.8539 59.6581 22.0611 59.6581Z" fill="#004767"/>
<path d="M17.516 54.0097C17.516 53.2167 16.8732 52.5742 16.0804 52.5742H1.43555C0.642742 52.5742 0 53.2167 0 54.0097C0 54.8027 0.642742 55.4453 1.43555 55.4453H16.0804C16.8732 55.4453 17.516 54.8027 17.516 54.0097Z" fill="#004767"/>
<path d="M61.1598 31.7409C61.9528 31.7409 62.5954 31.0984 62.5954 30.3054V28.1141C62.5954 27.3211 61.9528 26.6786 61.1598 26.6786C60.3669 26.6786 59.7243 27.3211 59.7243 28.1141V30.3054C59.7243 31.0984 60.3669 31.7409 61.1598 31.7409Z" fill="#004767"/>
<path d="M76.9434 33.2163C76.3826 32.6559 75.4738 32.6559 74.9132 33.2163L73.3637 34.7657C72.8031 35.3265 72.8031 36.2353 73.3637 36.796C73.9247 37.3566 74.8333 37.3564 75.394 36.796L76.9434 35.2465C77.5038 34.6859 77.5038 33.7771 76.9434 33.2163Z" fill="#004767"/>
<path d="M79.8545 47.5645C79.0615 47.5645 78.419 48.207 78.419 49C78.419 49.793 79.0615 50.4355 79.8545 50.4355H82.0455C82.8385 50.4355 83.4811 49.793 83.4811 49C83.4811 48.207 82.8385 47.5645 82.0455 47.5645H79.8545Z" fill="#004767"/>
<path d="M75.394 61.2039C74.8331 60.6435 73.9243 60.6435 73.3637 61.2039C72.8031 61.7647 72.8031 62.6735 73.3637 63.2341L74.9132 64.7836C75.4742 65.3442 76.3828 65.344 76.9434 64.7836C77.504 64.2228 77.504 63.314 76.9434 62.7533L75.394 61.2039Z" fill="#004767"/>
<path d="M59.7243 67.6946V69.8857C59.7243 70.6787 60.3669 71.3212 61.1598 71.3212C61.9528 71.3212 62.5954 70.6787 62.5954 69.8857V67.6946C62.5954 66.9016 61.9528 66.2591 61.1598 66.2591C60.3669 66.2591 59.7243 66.9018 59.7243 67.6946Z" fill="#004767"/>
<path d="M46.9255 61.2039L45.3761 62.7533C44.8155 63.3142 44.8155 64.2229 45.3761 64.7836C45.9369 65.3442 46.8457 65.344 47.4062 64.7836L48.9556 63.2341C49.5162 62.6733 49.5162 61.7645 48.9556 61.2039C48.3952 60.6435 47.4862 60.6435 46.9255 61.2039Z" fill="#004767"/>
<path d="M40.274 47.5645C39.4812 47.5645 38.8384 48.207 38.8384 49C38.8384 49.793 39.4812 50.4355 40.274 50.4355H42.4652C43.258 50.4355 43.9007 49.793 43.9007 49C43.9007 48.207 43.258 47.5645 42.4652 47.5645H40.274Z" fill="#004767"/>
<path d="M48.9558 34.7657L47.4064 33.2163C46.8457 32.6559 45.9367 32.6559 45.3763 33.2163C44.8157 33.7771 44.8157 34.6859 45.3763 35.2465L46.9257 36.796C47.4866 37.3566 48.3953 37.3564 48.9558 36.796C49.5164 36.2353 49.5164 35.3265 48.9558 34.7657Z" fill="#004767"/>
<path d="M68.8793 49C68.8793 48.207 68.2367 47.5645 67.4437 47.5645H62.5954V36.9062C62.5954 36.1132 61.9528 35.4706 61.1598 35.4706C60.3669 35.4706 59.7243 36.1132 59.7243 36.9062V49C59.7243 49.793 60.3669 50.4355 61.1598 50.4355H67.4437C68.2365 50.4355 68.8793 49.793 68.8793 49Z" fill="#004767"/>
<path d="M88.3801 48.7631C89.1716 48.715 89.7741 48.0346 89.7261 47.2433C88.8129 32.179 76.2651 20.3787 61.1597 20.3787C45.3778 20.3787 32.5383 33.2182 32.5383 49.0002C32.5383 64.782 45.3778 77.6216 61.1597 77.6216C75.2986 77.6216 87.3632 67.2623 89.4619 53.2829C89.5797 52.4989 89.0395 51.7679 88.2553 51.6502C87.4732 51.5329 86.7403 52.0725 86.6226 52.8569C84.7373 65.4158 73.893 74.7507 61.1597 74.7507C46.961 74.7507 35.4094 63.1991 35.4094 49.0004C35.4094 34.8017 46.961 23.2499 61.1597 23.2499C74.7497 23.2499 86.0386 33.8655 86.8602 47.4175C86.908 48.2084 87.5879 48.809 88.3801 48.7631Z" fill="#004767"/>
<path d="M61.1597 12.1599C56.1102 12.1599 51.1629 13.2074 46.6093 15.1665H21.2807C20.4879 15.1665 19.8452 15.809 19.8452 16.602C19.8452 17.395 20.4879 18.0376 21.2807 18.0376H41.2086C38.5142 19.7717 36.0338 21.8634 33.8468 24.2782C33.3146 24.8656 33.3594 25.7734 33.947 26.3057C34.5349 26.838 35.4423 26.7931 35.9748 26.2054C42.4064 19.1039 51.5861 15.0309 61.1597 15.0309C79.8903 15.0309 95.1289 30.2694 95.1289 49C95.1289 67.7304 79.8905 82.9691 61.1597 82.9691C42.429 82.9691 27.1906 67.7306 27.1906 49C27.1906 42.4409 29.0643 36.0747 32.6087 30.5894C33.039 29.9235 32.848 29.035 32.1821 28.6047C31.5162 28.1746 30.6277 28.3653 30.1972 29.0314C26.3519 34.9818 24.3195 41.8868 24.3195 49C24.3195 61.9708 31.0582 73.3963 41.2178 79.9625H21.2809C20.4881 79.9625 19.8454 80.605 19.8454 81.398C19.8454 82.191 20.4881 82.8335 21.2809 82.8335H46.5896C51.0609 84.7666 55.9871 85.8402 61.1598 85.8402C81.4734 85.8402 98 69.3138 98 49C98 28.6863 81.4734 12.1599 61.1597 12.1599Z" fill="#004767"/>
</g>
</svg>
