<?xml version="1.0" encoding="utf-8"?>
<!-- Svg Vector Icons : http://www.onlinewebfonts.com/icon -->
<!DOCTYPE svg PUBLIC "-//W3C//DTD SVG 1.1//EN" "http://www.w3.org/Graphics/SVG/1.1/DTD/svg11.dtd">
<svg version="1.1" xmlns="http://www.w3.org/2000/svg" xmlns:xlink="http://www.w3.org/1999/xlink" x="0px" y="0px" viewBox="0 0 1000 1000" enable-background="new 0 0 1000 1000" xml:space="preserve">
<metadata> Svg Vector Icons : http://www.onlinewebfonts.com/icon </metadata>
<g><g transform="translate(0.000000,511.000000) scale(0.100000,-0.100000)"><path d="M6765.4,2743.5c-24.9-13.6-556.8-536.4-1181.4-1161.1L4445.5,448.5l400.6-400.6C5067.9-173.9,5258-355,5271.6-355c40.7,0,2272.3,2249.7,2295,2315.3c38.5,99.6-4.5,167.5-298.8,464C6932.9,2763.8,6874,2800,6765.4,2743.5z"/><path d="M9096.5,2745.7c-24.9-9.1-875.9-851-1889.8-1864.9C6192.8-135.4,5353.1-966,5339.5-966c-11.3,0-491.1,468.5-1063.7,1041.1c-980,977.7-1047.9,1041.1-1122.6,1041.1c-72.4,0-108.6-29.4-411.9-335c-276.1-278.4-332.7-348.6-332.7-402.9c0-56.6,192.4-258,1423.6-1489.2c1360.2-1360.2,1430.4-1425.9,1507.3-1425.9c79.2,0,176.5,95.1,2322.1,2240.7C9759.7,1801.9,9900,1946.8,9900,2019.2c0,70.2-33.9,110.9-321.4,400.6C9257.2,2741.2,9189.3,2786.5,9096.5,2745.7z"/><path d="M423.6,792.5C115.8,487,100,464.3,100,380.6c0-88.3,22.6-110.9,1396.5-1487c767.2-767.3,1425.9-1407.8,1459.8-1423.6c47.5-20.4,79.2-20.4,126.7,0c34,15.8,235.4,199.2,445.9,409.7l384.8,384.8l-411.9,411.9c-362.1,362.1-416.4,407.4-448.1,380.2c-31.7-27.2-156.2,90.5-1081.8,1013.9C946.5,1095.8,923.8,1116.2,835.6,1116.2C751.8,1116.2,729.2,1100.3,423.6,792.5z"/></g></g>
</svg>