<svg width="78" height="80" viewBox="0 0 78 80" fill="none" xmlns="http://www.w3.org/2000/svg">
<path d="M40.6329 79.8125C30.074 79.8125 19.9475 75.6181 12.4813 68.1517C5.01496 60.6854 0.820435 50.5591 0.820435 40C0.820435 29.4411 5.01496 19.3146 12.4813 11.8483C19.9475 4.38202 30.074 0.1875 40.6329 0.1875C41.4451 0.1875 42.2242 0.510165 42.7983 1.08449C43.3729 1.65881 43.6954 2.43778 43.6954 3.25C43.6954 4.06222 43.3729 4.84119 42.7983 5.41551C42.2242 5.98983 41.4451 6.3125 40.6329 6.3125C31.6986 6.3125 23.1299 9.86169 16.8123 16.1793C10.4947 22.497 6.94543 31.0655 6.94543 40C6.94543 48.9343 10.4947 57.5032 16.8123 63.8205C23.1299 70.1383 31.6986 73.6875 40.6329 73.6875C45.0968 73.7022 49.5187 72.8206 53.6359 71.095C57.7531 69.3698 61.482 66.8353 64.6021 63.6425C65.1762 63.0631 65.9565 62.7356 66.7724 62.7315C67.5878 62.7278 68.3714 63.048 68.9509 63.6221C69.5303 64.1962 69.8578 64.9765 69.8618 65.7924C69.8655 66.6078 69.5454 67.3914 68.9713 67.9708C65.2754 71.7336 60.8646 74.7198 55.9981 76.7533C51.1312 78.7872 45.9074 79.8272 40.6329 79.8125Z" fill="#1968D1"/>
<path d="M39.4079 54.0875C39.0057 54.0896 38.6068 54.0108 38.2352 53.8568C37.8636 53.7025 37.5263 53.4754 37.2438 53.1892L20.9104 36.8559C20.3695 36.2752 20.075 35.5075 20.0889 34.7141C20.103 33.9208 20.4244 33.1637 20.9855 32.6027C21.5466 32.0416 22.3036 31.72 23.097 31.706C23.8904 31.6921 24.6582 31.9865 25.2388 32.5275L39.4079 46.6967L72.0746 14.03C72.3551 13.7291 72.6932 13.4878 73.0689 13.3204C73.4445 13.153 73.85 13.063 74.2612 13.0558C74.6724 13.0485 75.0807 13.1242 75.4621 13.2782C75.8435 13.4322 76.1898 13.6615 76.4805 13.9523C76.7712 14.2431 77.0007 14.5895 77.1547 14.9708C77.3086 15.3522 77.3846 15.7606 77.3772 16.1718C77.3699 16.583 77.28 16.9886 77.1126 17.3642C76.9452 17.7399 76.7039 18.078 76.4029 18.3584L41.6946 53.0667C41.4104 53.3925 41.0584 53.6526 40.6636 53.829C40.2687 54.005 39.8404 54.0932 39.4079 54.0875Z" fill="#1968D1"/>
</svg>
