<?xml version="1.0" encoding="UTF-8"?>
<svg width="15px" height="17px" viewBox="0 0 15 17" version="1.1" xmlns="http://www.w3.org/2000/svg" xmlns:xlink="http://www.w3.org/1999/xlink">
    <!-- Generator: Sketch 61.2 (89653) - https://sketch.com -->
    <title>shield (8)@1</title>
    <desc>Created with Sketch.</desc>
    <g id="Page-1" stroke="none" stroke-width="1" fill="none" fill-rule="evenodd">
        <g id="Menu---Logged-out" transform="translate(-280.000000, -921.000000)" fill="#00B362" fill-rule="nonzero">
            <g id="Group" transform="translate(132.000000, 921.000000)">
                <g id="Group-9">
                    <g id="shield-(8)" transform="translate(148.000000, 0.000000)">
                        <path d="M14.2613223,4.54927037 L14.2608106,4.53622237 C14.2535191,4.37516926 14.2486581,4.20477793 14.2457159,4.01519833 C14.2320283,3.09071003 13.4971196,2.32599565 12.5725034,2.27431539 C10.6447272,2.16673343 9.15341903,1.53812746 7.87919349,0.296138154 L7.86832018,0.285776493 C7.45270341,-0.0953014686 6.82576041,-0.0953014686 6.4100157,0.285776493 L6.39914239,0.296138154 C5.12491688,1.53812746 3.63360865,2.16673343 1.70583248,2.2744433 C0.781344189,2.32599565 0.0463075469,3.09071003 0.0326199768,4.01532624 C0.0298056886,4.20362661 0.024816744,4.37401797 0.0175252298,4.53622237 L0.0167577175,4.56653974 C-0.0207232578,6.5323086 -0.0672866967,8.97880627 0.751154727,11.1993946 C1.20118239,12.4205328 1.88274785,13.4820249 2.77679082,14.3545771 C3.79504553,15.3482709 5.1287545,16.1371624 6.74082057,16.6992493 C6.79326835,16.717542 6.8477629,16.7323809 6.90328079,16.7435101 C6.98156872,16.7591165 7.06036833,16.7669197 7.13916794,16.7669197 C7.21796755,16.7669197 7.29689507,16.7591165 7.37505508,16.7435101 C7.43057301,16.7323809 7.4854513,16.7174141 7.53815494,16.6989934 C9.14830218,16.1358832 10.480604,15.3466079 11.4979633,14.353042 C12.3916225,13.480234 13.0731879,12.418486 13.5235994,11.197092 C14.3451109,8.96985175 14.2986754,6.51874895 14.2613223,4.54927037 Z M12.6005182,10.8566931 C11.7373043,13.1971439 9.9751864,14.8044768 7.21349032,15.7702837 C7.20364035,15.7736097 7.19315081,15.7765518 7.18227746,15.7787265 C7.153751,15.7843551 7.12471282,15.7843551 7.09580259,15.7785986 C7.08505716,15.7764239 7.07456762,15.7736097 7.06484559,15.7702837 C4.30020731,14.8062677 2.53693811,13.1998302 1.67436379,10.8592515 C0.920011035,8.81238044 0.962736815,6.56659155 1.00047362,4.5853442 L1.00072948,4.57434297 C1.00840476,4.40407952 1.01352162,4.22575701 1.01633588,4.02978139 C1.02247611,3.61928145 1.34944332,3.27965003 1.76071077,3.25675209 C2.85162486,3.19586148 3.81001233,2.98504694 4.69062356,2.61228383 C5.57008351,2.24003244 6.35117184,1.71529865 7.07827733,1.0081489 C7.11524665,0.97693607 7.16321717,0.976808157 7.20005855,1.0081489 C7.92729196,1.71529865 8.70838032,2.24003244 9.58771235,2.61228383 C10.4683235,2.98504694 11.426711,3.19586148 12.517753,3.25675209 C12.9290205,3.27965003 13.2559877,3.61928145 13.262,4.0299093 C13.2649422,4.22690833 13.2700591,4.40523081 13.2777343,4.57434297 C13.3153432,6.55789289 13.3570456,8.8054727 12.6005182,10.8566931 Z" id="Shape"></path>
                        <path d="M7.13891211,4.20516167 C4.83479104,4.20516167 2.96035811,6.07972254 2.96035811,8.38371567 C2.96035811,10.6878368 4.83479104,12.5623976 7.13891211,12.5623976 C9.44290524,12.5623976 11.3174661,10.6878368 11.3174661,8.38371567 C11.3174661,6.07972254 9.44290524,4.20516167 7.13891211,4.20516167 Z M7.13891211,11.5784259 C5.37730588,11.5784259 3.94420192,10.1453219 3.94420192,8.38371567 C3.94420192,6.62210947 5.37730588,5.18900551 7.13891211,5.18900551 C8.9003904,5.18900551 10.3334944,6.62210947 10.3334944,8.38371567 C10.3334944,10.1453219 8.9003904,11.5784259 7.13891211,11.5784259 Z" id="Shape"></path>
                        <path d="M8.33983864,7.0864643 L6.39901447,9.02728847 L5.87223394,8.50050798 C5.68009595,8.30836995 5.36860722,8.30836995 5.17646919,8.50050798 C4.98445911,8.69264597 4.98445911,9.0041347 5.17646919,9.19614478 L6.05119605,10.0708716 C6.14726507,10.1669407 6.27313977,10.2149112 6.39901447,10.2149112 C6.52488917,10.2149112 6.65076388,10.1669407 6.74683289,10.0708716 L9.03560336,7.78210114 C9.22761347,7.58996311 9.22761347,7.27847438 9.03560336,7.0864643 C8.84346536,6.8941984 8.53197664,6.8941984 8.33983864,7.0864643 Z" id="Path"></path>
                    </g>
                </g>
            </g>
        </g>
    </g>
</svg>