<svg width="98" height="98" viewBox="0 0 98 98" fill="none" xmlns="http://www.w3.org/2000/svg">
<g opacity="0.6">
<path d="M27.7325 85.5923H70.2675C73.157 85.5923 75.5059 83.2433 75.5059 80.3554V28.3052C75.5059 25.4172 73.157 23.0683 70.2675 23.0683H62.0003V20.2309C62.0003 19.3856 61.3159 18.6996 60.4691 18.6996H54.9305V18.3367C54.9305 15.0675 52.2708 12.4077 49.0015 12.4077C45.7323 12.4077 43.0725 15.0675 43.0725 18.3367V18.6996H37.534C36.6888 18.6996 36.0028 19.3856 36.0028 20.2309V23.0683H27.734C24.8461 23.0683 22.4971 25.4172 22.4971 28.3052V80.3554C22.4941 83.2433 24.8445 85.5923 27.7325 85.5923ZM44.6023 21.7606C45.4475 21.7606 46.1335 21.0746 46.1335 20.2293V18.3352C46.1335 16.7549 47.4198 15.4687 49 15.4687C50.5803 15.4687 51.8665 16.7549 51.8665 18.3352V20.2293C51.8665 21.0746 52.551 21.7606 53.3978 21.7606H58.9363V24.5766C58.9363 24.5842 58.9317 24.5903 58.9317 24.5995C58.9317 24.6087 58.9363 24.6133 58.9363 24.6225V27.4293H39.0637V24.6194C39.0637 24.6133 39.0668 24.6072 39.0668 24.6011C39.0668 24.5949 39.0637 24.5888 39.0637 24.5827V21.7637H44.6023V21.7606ZM25.5566 28.3052C25.5566 27.1062 26.532 26.1308 27.7309 26.1308H35.9997V28.959C35.9997 29.8042 36.6857 30.4902 37.5309 30.4902H60.4675C61.3143 30.4902 61.9988 29.8042 61.9988 28.959V26.1308H70.266C71.465 26.1308 72.4419 27.1062 72.4419 28.3052V80.3554C72.4419 81.5544 71.465 82.5298 70.266 82.5298H27.7325C26.5335 82.5298 25.5581 81.5544 25.5581 80.3554V28.3052H25.5566Z" fill="#017CB6"/>
<path d="M58.0803 44.6298H66.1852C67.032 44.6298 67.7165 43.9438 67.7165 43.0986V35.9262C67.7165 35.081 67.032 34.395 66.1852 34.395H58.0803C57.2335 34.395 56.5491 35.081 56.5491 35.9262V43.0986C56.5491 43.9438 57.2335 44.6298 58.0803 44.6298ZM59.6116 37.4575H64.654V41.5673H59.6116V37.4575Z" fill="#017CB6"/>
<path d="M58.0803 59.4477H66.1852C67.032 59.4477 67.7165 58.7617 67.7165 57.9165V50.7441C67.7165 49.8988 67.032 49.2128 66.1852 49.2128H58.0803C57.2335 49.2128 56.5491 49.8988 56.5491 50.7441V57.9165C56.5491 58.7617 57.2335 59.4477 58.0803 59.4477ZM59.6116 52.2753H64.654V56.3852H59.6116V52.2753Z" fill="#017CB6"/>
<path d="M58.0803 74.2641H66.1852C67.032 74.2641 67.7165 73.5781 67.7165 72.7328V65.5604C67.7165 64.7152 67.032 64.0292 66.1852 64.0292H58.0803C57.2335 64.0292 56.5491 64.7152 56.5491 65.5604V72.7328C56.5491 73.5781 57.2335 74.2641 58.0803 74.2641ZM59.6116 67.0917H64.654V71.2016H59.6116V67.0917Z" fill="#017CB6"/>
<path d="M31.5438 41.0436H50.0152C50.8605 41.0436 51.5465 40.3576 51.5465 39.5124C51.5465 38.6671 50.862 37.9811 50.0152 37.9811H31.5438C30.6985 37.9811 30.0125 38.6671 30.0125 39.5124C30.0125 40.3576 30.6985 41.0436 31.5438 41.0436Z" fill="#017CB6"/>
<path d="M31.5438 55.8615H50.0152C50.8605 55.8615 51.5465 55.1755 51.5465 54.3303C51.5465 53.485 50.862 52.799 50.0152 52.799H31.5438C30.6985 52.799 30.0125 53.485 30.0125 54.3303C30.0125 55.1755 30.6985 55.8615 31.5438 55.8615Z" fill="#017CB6"/>
<path d="M31.5438 70.6779H50.0152C50.8605 70.6779 51.5465 69.9919 51.5465 69.1467C51.5465 68.3014 50.862 67.6154 50.0152 67.6154H31.5438C30.6985 67.6154 30.0125 68.3014 30.0125 69.1467C30.0125 69.9919 30.6985 70.6779 31.5438 70.6779Z" fill="#017CB6"/>
</g>
</svg>
