<?xml version="1.0" encoding="utf-8"?>
<!-- Svg Vector Icons : http://www.onlinewebfonts.com/icon -->
<!DOCTYPE svg PUBLIC "-//W3C//DTD SVG 1.1//EN" "http://www.w3.org/Graphics/SVG/1.1/DTD/svg11.dtd">
<svg version="1.1" xmlns="http://www.w3.org/2000/svg" xmlns:xlink="http://www.w3.org/1999/xlink" x="0px" y="0px" viewBox="0 0 1000 1000" enable-background="new 0 0 1000 1000" xml:space="preserve">
<metadata> Svg Vector Icons : http://www.onlinewebfonts.com/icon </metadata>
<g><path d="M561.8,983.3c-3.4,0-7-0.2-10.4-0.5c-37.3-3.6-65.3-18.9-83.1-46c-33.7-51.3-18.8-129.3-11-160C399.7,743.6,135.6,592.7,63,556c-4.2-2.1-9.2-3.8-11-2.4c-17,13.4-9,105,9.2,185l330,188.9c7.9,4.6,10.6,14.6,6.1,22.4c-4.5,8-14.5,10.6-22.3,6.1L38.5,763.5c-4-2.1-6.8-6-7.8-10.4c-10.5-44.5-41.5-191.9,0.9-225.4c8.6-6.7,23.8-12.6,46.3-1.2c82,41.4,393.7,220.2,406.9,227.9c6.8,3.9,9.9,11.9,7.5,19.3c-0.3,1-29.9,94.4,3.5,144.8c12.2,18.5,31.5,28.8,58.8,31.3C728.3,967,898.3,390.2,954,145.3L453.7,51.7l-181.7,474c-3.2,8.5-12.9,12.8-21.1,9.6c-8.5-3.2-12.8-12.8-9.5-21.2L428,27.3c2.8-7.5,10.6-11.8,18.3-10.3l530.4,99.3c4.4,0.8,8.1,3.4,10.6,7.1c2.4,3.7,3.4,8.2,2.4,12.6C970.3,223.7,796.9,983.3,561.8,983.3z"/><path d="M812.3,293.3c-1.7,0-3.4-0.2-4.9-0.7l-250.3-78c-8.6-2.7-13.6-11.9-10.9-20.6c2.6-8.6,12.1-13.6,20.6-10.8l250.3,77.8c8.6,2.7,13.6,11.9,10.8,20.6C825.7,288.9,819.2,293.3,812.3,293.3z"/><path d="M760.1,465.4c-1.6,0-3.3-0.2-4.9-0.8L505,386.8c-8.7-2.7-13.7-12-11-20.6c2.7-8.7,12.1-13.5,20.6-10.9l250.3,78c8.6,2.7,13.5,11.9,10.8,20.6C773.5,460.9,767.1,465.4,760.1,465.4z"/><path d="M707.5,599.5c-1.6,0-3.2-0.2-4.8-0.8l-250.1-78c-8.6-2.6-13.5-11.8-10.9-20.6c2.6-8.7,12.1-13.6,20.6-10.8l250.1,77.9c8.7,2.6,13.7,11.9,10.9,20.6C721.2,594.9,714.8,599.5,707.5,599.5z"/></g>
</svg>