<svg id="التطوير_و_التميز" data-name="التطوير و التميز" xmlns="http://www.w3.org/2000/svg" width="62.735" height="62.735" viewBox="0 0 62.735 62.735">
  <path id="Path_5" data-name="Path 5" d="M13.921,18.842a1.307,1.307,0,1,1,0-2.614h2.614a1.307,1.307,0,0,0,0-2.614H15.228V12.307A1.235,1.235,0,0,0,13.921,11a1.235,1.235,0,0,0-1.307,1.307v1.568A3.931,3.931,0,0,0,10,17.535a4.02,4.02,0,0,0,3.921,3.921,1.307,1.307,0,0,1,0,2.614H11.307a1.307,1.307,0,0,0,0,2.614h1.307v1.307A1.235,1.235,0,0,0,13.921,29.3a1.235,1.235,0,0,0,1.307-1.307V26.422a3.931,3.931,0,0,0,2.614-3.66A4.02,4.02,0,0,0,13.921,18.842Z" transform="translate(16.14 17.754)" fill="#fff"/>
  <path id="Path_6" data-name="Path 6" d="M54.893,47.051A9.406,9.406,0,0,0,49.142,49.4L42.608,44.96a15.7,15.7,0,0,0,1.83-7.058,14.8,14.8,0,0,0-.784-4.705l4.705-2.091a7.1,7.1,0,0,0,5.228,2.875,6.535,6.535,0,1,0,0-13.07H52.541l-1.568-3.66a4.2,4.2,0,0,0,1.307-2.875,3.921,3.921,0,0,0-7.842,0A4.02,4.02,0,0,0,48.358,18.3h.261l1.568,3.66a6.717,6.717,0,0,0-3.137,5.489,1.959,1.959,0,0,0,.261,1.307l-4.705,2.091a13.989,13.989,0,0,0-12.547-7.319,14.739,14.739,0,0,0-9.933,3.921l-3.4-2.875A8.043,8.043,0,0,0,18.3,19.6a10.959,10.959,0,0,0-1.046-4.182L23,11.24a6.306,6.306,0,0,0,4.444,1.83A6.783,6.783,0,0,0,33.982,6.8l5.751-1.046a3.5,3.5,0,0,0,3.4,2.091,4.02,4.02,0,0,0,3.921-3.921A4.02,4.02,0,0,0,43.13,0a4.163,4.163,0,0,0-3.921,3.137L33.459,4.182A6.3,6.3,0,0,0,27.447,0a6.471,6.471,0,0,0-6.535,6.535,7.734,7.734,0,0,0,.523,2.614l-5.751,4.182a8.5,8.5,0,0,0-6.535-2.875A9.262,9.262,0,0,0,0,19.6a9.262,9.262,0,0,0,9.149,9.149A8.281,8.281,0,0,0,15.161,26.4l3.4,2.875a13.506,13.506,0,0,0-2.875,8.365,14.993,14.993,0,0,0,2.091,7.58l-4.444,3.4a6.149,6.149,0,0,0-4.444-1.568,6.538,6.538,0,0,0,.261,13.07,6.471,6.471,0,0,0,6.535-6.535,11.117,11.117,0,0,0-.523-2.875l4.444-3.4a14.6,14.6,0,0,0,10.717,4.705A14.294,14.294,0,0,0,41.3,46.79l6.535,4.444a10.262,10.262,0,0,0-.784,3.66,7.842,7.842,0,1,0,7.842-7.842ZM47.051,14.377a1.307,1.307,0,0,1,2.614,0,1.307,1.307,0,0,1-2.614,0Zm6.535,9.149a3.921,3.921,0,1,1-3.921,3.921A4.02,4.02,0,0,1,53.586,23.526ZM43.13,2.614a1.235,1.235,0,0,1,1.307,1.307,1.307,1.307,0,0,1-2.614,0A1.235,1.235,0,0,1,43.13,2.614Zm-15.684,0a4.02,4.02,0,0,1,3.921,3.921,3.921,3.921,0,0,1-7.842,0A4.02,4.02,0,0,1,27.447,2.614ZM9.149,57.507a3.921,3.921,0,1,1,0-7.842,3.921,3.921,0,1,1,0,7.842Zm0-31.368a6.535,6.535,0,1,1,0-13.07,6.535,6.535,0,0,1,0,13.07ZM30.061,49.665A11.763,11.763,0,1,1,41.823,37.9,11.714,11.714,0,0,1,30.061,49.665ZM54.893,60.121a5.228,5.228,0,1,1,5.228-5.228A5.243,5.243,0,0,1,54.893,60.121Z" fill="#fff"/>
</svg>
