<svg xmlns="http://www.w3.org/2000/svg" width="62.67" height="62.735" viewBox="0 0 62.67 62.735">
  <path id="الحلول_و_الخطط" data-name="الحلول و الخطط" d="M61.69,54.632l-9.41-9.41a3.49,3.49,0,0,0-5.228,0l-3.66-3.66a24.793,24.793,0,0,0,6.274-16.468A25.046,25.046,0,0,0,24.833,0,24.991,24.991,0,0,0,0,24.833,24.991,24.991,0,0,0,24.833,49.665,24.3,24.3,0,0,0,41.3,43.392l3.66,3.66a3.972,3.972,0,0,0,0,5.228l9.41,9.41a4.476,4.476,0,0,0,5.751,0l1.568-1.568A4.329,4.329,0,0,0,61.69,54.632ZM15.161,4.967,20.65,9.672l-2.091,4.182A1.572,1.572,0,0,0,18.3,14.9c0,.261.523.523.784.784l6.535,2.091L23.787,23l-3.66-1.83a1.572,1.572,0,0,0-1.046-.261c-.261,0-.523.523-.784.784l-2.353,7.058H13.07a1.358,1.358,0,0,0-1.046.523,1.572,1.572,0,0,0-.261,1.046l1.046,4.444-1.046,1.046L7.58,31.629c-.261,0-.784-.261-1.046-.261H3.66a18.048,18.048,0,0,1-1.046-6.535A22.473,22.473,0,0,1,15.161,4.967ZM4.705,33.982H6.012l4.967,4.967c0,.261.523.261.784.261a1.572,1.572,0,0,0,1.046-.261l2.614-2.614a2.842,2.842,0,0,0,.261-1.307l-1.046-3.66h2.353a1.438,1.438,0,0,0,1.307-.784l2.091-6.535,3.921,1.83a1.572,1.572,0,0,0,1.046.261l.784-.784,2.614-7.842a1.269,1.269,0,0,0-.784-1.568l-6.535-2.353,1.83-3.921c.523-.523.261-1.046-.261-1.568L17.775,3.66a32.906,32.906,0,0,1,7.058-1.046,22.141,22.141,0,0,1,21.7,17.775l-6.535,3.4c-.523,0-.784.523-.784,1.046v2.091l-1.83,1.83H32.675c-.523,0-1.046.261-1.046.784l-2.614,5.228a1.231,1.231,0,0,0,.261,1.568l2.614,2.614c.261.261.523.261,1.046.261H34.5l1.568,4.705a23.368,23.368,0,0,1-11.24,3.137A22.287,22.287,0,0,1,4.705,33.982Zm33.459,8.626L36.6,37.38a1.438,1.438,0,0,0-1.307-.784H33.2l-1.568-1.568,1.83-3.66H37.9c.261,0,.784-.261,1.046-.261l2.614-2.614c.261-.261.261-.523.261-1.046v-1.83L47.051,23v1.83A22.035,22.035,0,0,1,38.164,42.608Zm21.7,15.684L58.291,59.86a1.263,1.263,0,0,1-1.83,0l-9.41-9.41a1.263,1.263,0,0,1,0-1.83l1.568-1.568c.261-.261.523-.261,1.046-.261s.784,0,1.046.261l9.41,9.41A4.448,4.448,0,0,1,59.86,58.291Z" fill="#fff"/>
</svg>
