<svg xmlns="http://www.w3.org/2000/svg" width="62.996" height="62.735" viewBox="0 0 62.996 62.735">
  <path id="المشورة_في_مجال_" data-name="المشورة في مجال " d="M61.167,34.766a4.5,4.5,0,0,0-3.66-.261L54.893,35.55V4.182A4.079,4.079,0,0,0,50.972,0H45.744a4.02,4.02,0,0,0-3.921,3.921V7.842H35.288a4.02,4.02,0,0,0-3.921,3.921v9.149H24.833a4.02,4.02,0,0,0-3.921,3.921V38.425l-7.842,1.83v-.784a3.5,3.5,0,0,0-2.091-3.4L7.842,34.5a4.163,4.163,0,0,0-3.921-3.137H1.307A1.235,1.235,0,0,0,0,32.675V61.428a1.235,1.235,0,0,0,1.307,1.307H3.921A4.163,4.163,0,0,0,7.842,59.6l3.137-1.568a4.553,4.553,0,0,0,2.091-3.137l12.547,7.319a4.924,4.924,0,0,0,2.091.523,4.846,4.846,0,0,0,1.83-.523L60.905,45.483A4.079,4.079,0,0,0,63,42.085V38.164A5.466,5.466,0,0,0,61.167,34.766ZM5.228,58.814a1.235,1.235,0,0,1-1.307,1.307H2.614V33.982H3.921a1.235,1.235,0,0,1,1.307,1.307Zm5.228-4.182c0,.523-.261,1.046-.784,1.046l-1.83,1.046V37.38l1.83,1.046c.523.261.784.523.784,1.046ZM44.437,3.921a1.235,1.235,0,0,1,1.307-1.307h5.228a1.235,1.235,0,0,1,1.307,1.307V36.334l-7.842,2.875ZM33.982,11.763a1.235,1.235,0,0,1,1.307-1.307h6.535v29.8l-3.66,1.307-.784-2.875a4.312,4.312,0,0,0-3.137-2.875V11.763ZM23.526,24.833a1.235,1.235,0,0,1,1.307-1.307h6.535V36.073L23.526,37.9Zm36.6,16.991c0,.523-.261,1.046-.784,1.046L27.969,59.86a1.167,1.167,0,0,1-1.307,0L13.07,52.018V42.869L33.2,38.425c.784-.261,1.307.261,1.568,1.046l1.307,4.182V44.7c-.261.261-.523.523-.784.523l-7.842,1.83A1.433,1.433,0,0,0,26.4,48.62a1.737,1.737,0,0,0,1.307,1.046h.261l7.842-1.83a4.171,4.171,0,0,0,2.353-1.83,3.715,3.715,0,0,0,.523-1.568l19.866-7.319c.523-.261.784,0,1.307.261a1.358,1.358,0,0,1,.523,1.046v3.4Z" fill="#fff"/>
</svg>
