<?xml version="1.0" encoding="UTF-8"?>
<svg width="72px" height="72px" viewBox="0 0 72 72" version="1.1" xmlns="http://www.w3.org/2000/svg" xmlns:xlink="http://www.w3.org/1999/xlink">
    <!-- Generator: sketchtool 61.2 (101010) - https://sketch.com -->
    <title>84A38DAE-758C-4F64-A670-9AC3EBCDA17A@1</title>
    <desc>Created with sketchtool.</desc>
    <g id="Page-1" stroke="none" stroke-width="1" fill="none" fill-rule="evenodd">
        <g id="Home-Page---Banner" transform="translate(-684.000000, -7691.000000)" fill-rule="nonzero">
            <g id="telephone-(1)-copy" transform="translate(720.000000, 7727.000000) scale(-1, 1) translate(-720.000000, -7727.000000) translate(684.000000, 7691.000000)">
                <circle id="Oval" fill="#FE571C" cx="36" cy="36" r="36"></circle>
                <path d="M54,43.443 C50.1165,43.443 46.413,42.597 42.9975,40.9275 C42.462,40.671 41.841,40.6305 41.274,40.824 C40.707,41.022 40.2435,41.436 39.9825,41.9715 L38.3625,45.324 C33.5025,42.534 29.4705,38.4975 26.676,33.6375 L30.033,32.0175 C30.573,31.7565 30.9825,31.293 31.1805,30.726 C31.374,30.159 31.338,29.538 31.077,29.0025 C29.403,25.5915 28.557,21.888 28.557,18 C28.557,16.758 27.549,15.75 26.307,15.75 L18,15.75 C16.758,15.75 15.75,16.758 15.75,18 C15.75,39.0915 32.9085,56.25 54,56.25 C55.242,56.25 56.25,55.242 56.25,54 L56.25,45.693 C56.25,44.451 55.242,43.443 54,43.443 Z" id="Path" fill="#FAFAFA"></path>
            </g>
        </g>
    </g>
</svg>