<svg xmlns="http://www.w3.org/2000/svg" width="511.998" height="488.006" viewBox="0 0 511.998 488.006">
  <g id="coding" transform="translate(0 -11.996)">
    <path id="Path_394" data-name="Path 394" d="M93.563,55.271a33.817,33.817,0,1,0,33.858,33.817A33.862,33.862,0,0,0,93.563,55.271Zm0,47.466a13.649,13.649,0,1,1,13.69-13.648A13.67,13.67,0,0,1,93.563,102.737Z" fill="#ae8910"/>
    <path id="Path_395" data-name="Path 395" d="M389.364,55.271H299.935a33.817,33.817,0,1,0,0,67.634h89.429a33.817,33.817,0,1,0,0-67.634Zm0,47.466H299.935a13.649,13.649,0,1,1,0-27.3h89.429a13.649,13.649,0,1,1,0,27.3Z" fill="#ae8910"/>
    <path id="Path_396" data-name="Path 396" d="M181.235,55.271a33.817,33.817,0,1,0,33.858,33.817,33.862,33.862,0,0,0-33.858-33.817Zm0,47.466a13.649,13.649,0,1,1,13.69-13.649A13.67,13.67,0,0,1,181.235,102.737Z" fill="#ae8910"/>
    <path id="Path_397" data-name="Path 397" d="M164.792,222.444a10.082,10.082,0,0,0-12.152,7.464l-20.006,83.718a10.084,10.084,0,1,0,19.616,4.688L172.256,234.6A10.084,10.084,0,0,0,164.792,222.444Z" fill="#ae8910"/>
    <path id="Path_398" data-name="Path 398" d="M201.815,315.939a10.086,10.086,0,0,0,14.239-.823l28.278-31.744a13.993,13.993,0,0,0,.029-18.489l-28.308-31.777a10.085,10.085,0,1,0-15.061,13.415l24.577,27.589L200.992,301.7a10.086,10.086,0,0,0,.823,14.239Z" fill="#ae8910"/>
    <path id="Path_399" data-name="Path 399" d="M103.076,232.284a10.086,10.086,0,0,0-14.238.823L60.563,264.848a13.987,13.987,0,0,0-.032,18.492l28.308,31.777A10.085,10.085,0,0,0,103.9,301.7L79.324,274.113l24.577-27.59a10.086,10.086,0,0,0-.825-14.239Z" fill="#ae8910"/>
    <path id="Path_400" data-name="Path 400" d="M489.391,339.532h-3.744a106.177,106.177,0,0,0-7.6-18.344l2.672-2.681a22.595,22.595,0,0,0,.021-31.959l-5.206-5.2V66.545C475.532,36.466,454.306,12,428.214,12H47.318C21.226,12,0,36.466,0,66.545V348.4c0,30.079,21.226,54.549,47.318,54.549h59.166a10.084,10.084,0,1,0,0-20.168H47.318c-14.716,0-27.149-15.745-27.149-34.38V165.445H455.362v101.9a22.929,22.929,0,0,0-3.5-.293h-.035a22.355,22.355,0,0,0-15.913,6.593l-2.726,2.714a106.462,106.462,0,0,0-18.639-7.7v-3.592a22.631,22.631,0,0,0-22.609-22.6H373.693a22.616,22.616,0,0,0-22.58,22.6v3.838a107.043,107.043,0,0,0-18.209,7.626l-2.612-2.6a22.389,22.389,0,0,0-15.948-6.626h-.034a22.452,22.452,0,0,0-15.98,6.605L285.437,286.8a22.593,22.593,0,0,0-.012,31.925l2.785,2.793a106.49,106.49,0,0,0-7.427,18.009h-3.83A22.6,22.6,0,0,0,254.372,362.1v18.267a22.728,22.728,0,0,0,.129,2.4H195.826a10.084,10.084,0,1,0,0,20.168h84.995a105.868,105.868,0,0,0,7.546,18.154l-2.725,2.713a22.632,22.632,0,0,0,.021,31.918l12.9,12.895a22.389,22.389,0,0,0,15.948,6.626h.033a22.449,22.449,0,0,0,15.981-6.606l2.7-2.7a106.552,106.552,0,0,0,18.225,7.552v3.9A22.617,22.617,0,0,0,374.032,500h18.277a22.616,22.616,0,0,0,22.58-22.6V473.52a106.276,106.276,0,0,0,18.3-7.577l2.689,2.679a22.383,22.383,0,0,0,15.946,6.627h.035a22.459,22.459,0,0,0,15.988-6.613l12.865-12.887a22.593,22.593,0,0,0,.02-31.959l-2.691-2.69a106.48,106.48,0,0,0,7.535-18.156h3.811A22.616,22.616,0,0,0,512,380.371V362.1a22.613,22.613,0,0,0-22.607-22.572ZM20.169,145.276V66.545c0-18.635,12.433-34.38,27.149-34.38h380.9c14.716,0,27.149,15.745,27.149,34.38v78.732H20.169Zm471.662,235.1a2.485,2.485,0,0,1-2.441,2.4H477.858a10.084,10.084,0,0,0-9.83,7.832,86.568,86.568,0,0,1-11.12,26.794,10.084,10.084,0,0,0,1.41,12.5l8.16,8.155a2.418,2.418,0,0,1,.7,1.718,2.338,2.338,0,0,1-.708,1.7L453.586,454.38a2.429,2.429,0,0,1-1.724.7h0a2.35,2.35,0,0,1-1.71-.714l-8.19-8.156a10.087,10.087,0,0,0-12.486-1.392,86.407,86.407,0,0,1-26.906,11.137,10.087,10.087,0,0,0-7.846,9.834V477.4a2.487,2.487,0,0,1-2.411,2.434H374.034a2.486,2.486,0,0,1-2.412-2.434v-11.64a10.085,10.085,0,0,0-7.86-9.836,86.526,86.526,0,0,1-26.855-11.117,10.081,10.081,0,0,0-12.479,1.416l-8.159,8.155a2.429,2.429,0,0,1-1.724.7h0a2.342,2.342,0,0,1-1.7-.7l-12.921-12.915a2.483,2.483,0,0,1-.012-3.394l8.189-8.156a10.083,10.083,0,0,0,1.41-12.53,85.951,85.951,0,0,1-11.135-26.774,10.085,10.085,0,0,0-9.831-7.833h-11.59a2.441,2.441,0,0,1-2.412-2.4V362.108a2.441,2.441,0,0,1,2.412-2.4h11.561a10.087,10.087,0,0,0,9.834-7.846,86.508,86.508,0,0,1,10.991-26.666,10.084,10.084,0,0,0-1.415-12.46l-8.25-8.274a2.314,2.314,0,0,1-.679-1.669,2.414,2.414,0,0,1,.7-1.717l12.892-12.886a2.429,2.429,0,0,1,1.724-.7h0a2.355,2.355,0,0,1,1.71.714l8.132,8.1a10.082,10.082,0,0,0,12.516,1.373A86.993,86.993,0,0,1,363.5,286.425a10.084,10.084,0,0,0,7.785-9.819V265.08a2.455,2.455,0,0,1,2.411-2.434h18.249a2.471,2.471,0,0,1,2.441,2.434v11.356a10.083,10.083,0,0,0,7.893,9.843A86.46,86.46,0,0,1,429.483,297.5a10.088,10.088,0,0,0,12.476-1.4l8.223-8.19a2.324,2.324,0,0,1,1.676-.68h0a2.426,2.426,0,0,1,1.723.7l12.893,12.885a2.418,2.418,0,0,1,.7,1.718,2.346,2.346,0,0,1-.712,1.7l-8.161,8.185a10.085,10.085,0,0,0-1.388,12.5,86.317,86.317,0,0,1,11.165,26.939,10.085,10.085,0,0,0,9.833,7.843H489.39a2.488,2.488,0,0,1,2.441,2.4Z" fill="#ae8910"/>
    <path id="Path_401" data-name="Path 401" d="M383.187,309.652a61.587,61.587,0,1,0,61.6,61.6A61.684,61.684,0,0,0,383.187,309.652Zm0,103.005a41.418,41.418,0,1,1,41.431-41.4A41.479,41.479,0,0,1,383.187,412.657Z" fill="#ae8910"/>
    <path id="Path_402" data-name="Path 402" d="M151.454,382.778h-.2a10.084,10.084,0,1,0,0,20.168h.2a10.084,10.084,0,1,0,0-20.168Z" fill="#ae8910"/>
  </g>
</svg>
