<?xml version="1.0" encoding="UTF-8"?>
<svg width="30px" height="38px" viewBox="0 0 30 38" version="1.1" xmlns="http://www.w3.org/2000/svg" xmlns:xlink="http://www.w3.org/1999/xlink">
    <title>F9B1EA3D-2E0A-4CD9-B351-1556ECB18DE6@1</title>
    <g id="Page-1" stroke="none" stroke-width="1" fill="none" fill-rule="evenodd">
        <g id="Menu---Logged-out" transform="translate(-266.000000, -1333.000000)" fill-rule="nonzero">
            <g id="VAT" transform="translate(266.000000, 1333.000000)">
                <path d="M1.43561208,25.4868783 L28.5643879,25.4868783 C29.1081081,25.4868783 29.608903,25.6815796 30,26.0092477 L30,1.64783804 C30,0.740814796 29.2559618,0 28.3449921,0 L1.65500795,0 C0.744038156,0 0,0.740814796 0,1.64783804 L0,26.0044989 C0.391096979,25.6863284 0.887122417,25.4868783 1.43561208,25.4868783" id="Path" fill="#045C4D"></path>
                <path d="M4.33068362,7.2371907 C2.73290938,7.2371907 2.16534181,6.22094476 2.16534181,5.34716321 C2.16534181,4.2311922 3.10492846,3.4523869 4.45468998,3.4523869 L4.66931638,3.4523869 L4.66931638,3.11997001 L5.38473768,3.11997001 L5.38473768,6.52486878 L10.2257552,6.52486878 L10.2257552,3.4523869 L10.9411765,3.4523869 L10.9411765,6.52486878 L15.4531002,6.52486878 L15.4531002,3.4523869 L16.154213,3.4523869 L16.154213,7.2371907 L4.33068362,7.2371907 L4.33068362,7.2371907 Z M4.23529412,4.16470882 C3.58187599,4.16470882 2.88076312,4.61584604 2.88076312,5.34716321 C2.88076312,6.1592102 3.56279809,6.52486878 4.23529412,6.52486878 L4.66931638,6.52486878 L4.66931638,4.16470882 L4.23529412,4.16470882 L4.23529412,4.16470882 Z M5.48012719,2.1892027 C5.48012719,1.94701325 5.27503975,1.75231192 5.01748808,1.75231192 C4.75993641,1.75231192 4.55961844,1.94226443 4.55961844,2.1892027 C4.55961844,2.44088978 4.75516693,2.63084229 5.01748808,2.63084229 C5.27980922,2.63084229 5.48012719,2.44088978 5.48012719,2.1892027 M4.18759936,2.1892027 C4.18759936,1.94701325 3.9872814,1.75231192 3.72972973,1.75231192 C3.47217806,1.75231192 3.2718601,1.94226443 3.2718601,2.1892027 C3.2718601,2.44088978 3.46740859,2.63084229 3.72972973,2.63084229 C3.99205087,2.63084229 4.18759936,2.44088978 4.18759936,2.1892027 M11.0556439,8.17270682 C11.0556439,7.92576856 10.8505564,7.73106723 10.5834658,7.73106723 C10.3163752,7.73106723 10.1112878,7.92576856 10.1112878,8.17270682 C10.1112878,8.42914271 10.3116057,8.62384404 10.5834658,8.62384404 C10.8553259,8.62384404 11.0556439,8.42914271 11.0556439,8.17270682 M15.0763116,8.18695326 C15.0763116,7.940015 14.8759936,7.74531367 14.618442,7.74531367 C14.3608903,7.74531367 14.1605723,7.940015 14.1605723,8.18695326 C14.1605723,8.43389153 14.3561208,8.62384404 14.618442,8.62384404 C14.8807631,8.62384404 15.0763116,8.43389153 15.0763116,8.18695326 M16.3688394,8.18695326 C16.3688394,7.940015 16.163752,7.74531367 15.9062003,7.74531367 C15.6486486,7.74531367 15.4483307,7.940015 15.4483307,8.18695326 C15.4483307,8.43389153 15.6438792,8.62384404 15.9062003,8.62384404 C16.1732909,8.62384404 16.3688394,8.43864034 16.3688394,8.18695326 M17.5421304,8.69507623 C17.3895072,8.69507623 17.2416534,8.67608098 17.0842607,8.63334166 L16.9984102,8.6095976 L17.1844197,7.92576856 L17.2702703,7.94951262 C17.3942766,7.98275431 17.4372019,7.98750312 17.518283,7.98750312 C17.8282989,7.98750312 17.9332273,7.88302924 17.9332273,7.26093477 L17.9332273,3.45713572 L18.6486486,3.45713572 L18.6486486,6.5296176 L22.9316375,6.5296176 L22.9316375,3.45713572 L23.6470588,3.45713572 L23.6470588,3.87503124 L25.9841017,3.87503124 C26.5278219,3.87503124 26.8903021,4.01749563 27.1860095,4.35941015 C27.4101749,4.61109723 27.5341812,5.0099975 27.5341812,5.47538115 L27.5341812,7.24668833 L18.5675676,7.24668833 L18.5675676,7.28467883 C18.5961844,7.82604349 18.4960254,8.21544614 18.2718601,8.44813797 C18.0333863,8.69507623 17.6995231,8.69507623 17.5421304,8.69507623 L17.5421304,8.69507623 Z M23.6518283,6.52486878 L26.8235294,6.52486878 L26.8235294,5.46588353 C26.8235294,5.18095476 26.7662957,4.98625344 26.6422893,4.83429143 C26.5039746,4.66808298 26.2845787,4.58260435 25.9888712,4.58260435 L23.6518283,4.58260435 L23.6518283,6.52486878 Z M25.6645469,2.79230192 C25.6645469,2.54061485 25.4594595,2.34591352 25.1923688,2.34591352 C24.9300477,2.34591352 24.7201908,2.54536366 24.7201908,2.79230192 C24.7201908,3.04873782 24.9205087,3.24343914 25.1923688,3.24343914 C25.4642289,3.24343914 25.6645469,3.04873782 25.6645469,2.79230192" id="Shape" fill="#FFFFFF"></path>
                <path d="M4.99841017,10.5946013 C4.73608903,10.5946013 4.54054054,10.4046488 4.54054054,10.1529618 C4.54054054,9.91077231 4.74085851,9.71607098 4.99841017,9.71607098 C5.26073132,9.71607098 5.46104928,9.90602349 5.46104928,10.1529618 C5.46581876,10.4046488 5.26550079,10.5946013 4.99841017,10.5946013 M4.17329094,10.1482129 C4.17329094,9.90602349 3.97297297,9.71132217 3.7154213,9.71132217 C3.45786963,9.71132217 3.25755167,9.90127468 3.25755167,10.1482129 C3.25755167,10.3999 3.45310016,10.5898525 3.7154213,10.5898525 C3.97774245,10.5898525 4.17329094,10.4046488 4.17329094,10.1482129 M15.3004769,16.1459635 C15.3004769,15.8990252 15.100159,15.7043239 14.8426073,15.7043239 C14.5850556,15.7043239 14.3847377,15.8990252 14.3847377,16.1459635 C14.3847377,16.3929018 14.5802862,16.5828543 14.8426073,16.5828543 C15.1049285,16.5828543 15.3004769,16.3976506 15.3004769,16.1459635 M16.5930048,16.1459635 C16.5930048,15.8990252 16.3879173,15.7043239 16.1303657,15.7043239 C15.872814,15.7043239 15.672496,15.8990252 15.672496,16.1459635 C15.672496,16.3929018 15.8680445,16.5828543 16.1303657,16.5828543 C16.3974563,16.5828543 16.5930048,16.3976506 16.5930048,16.1459635 M20.5850556,10.4093977 C20.5850556,10.1672082 20.3847377,9.97250687 20.127186,9.97250687 C19.8696343,9.97250687 19.6693164,10.1624594 19.6693164,10.4093977 C19.6693164,10.6610847 19.8648649,10.8510372 20.127186,10.8510372 C20.3895072,10.8510372 20.5850556,10.6610847 20.5850556,10.4093977 M21.8775835,10.4093977 C21.8775835,10.1672082 21.672496,9.97250687 21.4149444,9.97250687 C21.1573927,9.97250687 20.9570747,10.1624594 20.9570747,10.4093977 C20.9570747,10.6610847 21.1526232,10.8510372 21.4149444,10.8510372 C21.6772655,10.8510372 21.8775835,10.6610847 21.8775835,10.4093977 M11.6041335,15.2056986 L11.6136725,15.1962009 L25.4785374,15.1962009 L25.4785374,9.63534116 L24.7631161,9.63534116 L24.7631161,14.483879 L22.0588235,14.483879 L22.0588235,11.4113972 L21.0667727,11.4113972 C19.7074722,11.4113972 18.8298887,12.1522119 18.8298887,13.3014246 C18.8298887,13.7335666 18.9682035,14.1134716 19.2400636,14.4268933 L19.2925278,14.4886278 L15.8918919,14.4886278 L15.8918919,11.4113972 L15.1764706,11.4113972 L15.1764706,14.483879 L12.0572337,14.483879 L12.0715421,14.4363909 C12.1430843,14.232192 12.1764706,14.0184954 12.1764706,13.7905524 C12.1764706,12.6365909 11.2988871,11.7628093 10.1399046,11.7628093 C9.02384738,11.7628093 8.15103339,12.6555861 8.15103339,13.7905524 C8.15103339,14.0089978 8.18441971,14.2226943 8.25596184,14.4363909 L8.27027027,14.483879 L5.37042925,14.483879 L5.37042925,11.0789803 L4.65500795,11.0789803 L4.65500795,11.4113972 L4.44038156,11.4113972 C3.09062003,11.4113972 2.15103339,12.1902024 2.15103339,13.3061735 C2.15103339,14.2179455 2.75198728,15.1962009 4.44038156,15.1962009 L8.71383148,15.1962009 L8.72337043,15.2056986 C9.10015898,15.5856036 9.60572337,15.7993002 10.1446741,15.7993002 C10.6979332,15.7993002 11.2321145,15.5856036 11.6041335,15.2056986 M11.4658188,13.7858035 C11.4658188,14.5266183 10.8982512,15.0822294 10.1446741,15.0822294 C9.42925278,15.0822294 8.87122417,14.5123719 8.87122417,13.7858035 C8.87122417,13.0497376 9.42925278,12.4751312 10.1446741,12.4751312 C10.9077901,12.4751312 11.4658188,13.0259935 11.4658188,13.7858035 M21.3481717,12.1237191 L21.3481717,14.483879 L20.2988871,14.483879 L20.2893482,14.4791302 C19.8219396,14.2036991 19.5500795,13.7763059 19.5500795,13.3014246 C19.5500795,12.5368658 20.2225755,12.1237191 20.8521463,12.1237191 L21.3481717,12.1237191 Z M4.65500795,12.1237191 L4.65500795,14.483879 L4.22098569,14.483879 C3.54848967,14.483879 2.86645469,14.1182204 2.86645469,13.3061735 C2.86645469,12.5748563 3.56756757,12.1237191 4.22098569,12.1237191 L4.65500795,12.1237191 Z M27.5389507,9.63534116 L26.8235294,9.63534116 L26.8235294,15.1962009 L27.5389507,15.1962009 L27.5389507,9.63534116 Z" id="Shape" fill="#FFFFFF"></path>
                <path d="M5.01748808,18.5536116 C4.75516693,18.5536116 4.55961844,18.3636591 4.55961844,18.111972 C4.55961844,17.8697826 4.75993641,17.6750812 5.01748808,17.6750812 C5.27980922,17.6750812 5.48012719,17.8650337 5.48012719,18.111972 C5.48012719,18.3636591 5.27980922,18.5536116 5.01748808,18.5536116 M4.18759936,18.111972 C4.18759936,17.8697826 3.9872814,17.6750812 3.72972973,17.6750812 C3.47217806,17.6750812 3.2718601,17.8650337 3.2718601,18.111972 C3.2718601,18.3636591 3.46740859,18.5536116 3.72972973,18.5536116 C3.99205087,18.5536116 4.18759936,18.3636591 4.18759936,18.111972 M9.76311606,23.1552112 L9.76311606,19.3704074 L8.77106518,19.3704074 C7.41176471,19.3704074 6.53418124,20.1112222 6.53418124,21.2604349 C6.53418124,21.6925769 6.67249603,22.0724819 6.94435612,22.3811547 L6.99682035,22.4428893 L5.38950715,22.4428893 L5.38950715,19.0379905 L4.67408585,19.0379905 L4.67408585,19.3704074 L4.45945946,19.3704074 C3.10969793,19.3704074 2.17011129,20.1492127 2.17011129,21.2651837 C2.17011129,22.1769558 2.77106518,23.1552112 4.45945946,23.1552112 L9.76311606,23.1552112 Z M9.04769475,20.0827293 L9.04769475,22.4428893 L7.99841017,22.4428893 L7.98887122,22.4381405 C7.52146264,22.1627093 7.24960254,21.7353162 7.24960254,21.2604349 C7.24960254,20.6905774 7.70747218,20.0827293 8.55166932,20.0827293 L9.04769475,20.0827293 L9.04769475,20.0827293 Z M4.66931638,20.0827293 L4.66931638,22.4428893 L4.23529412,22.4428893 C3.56279809,22.4428893 2.88076312,22.0772307 2.88076312,21.2651837 C2.88076312,20.5338665 3.58187599,20.0827293 4.23529412,20.0827293 L4.66931638,20.0827293 L4.66931638,20.0827293 Z M8.92845787,18.3636591 C8.92845787,18.111972 8.72337043,17.9125219 8.45627981,17.9125219 C8.19395866,17.9125219 7.98410175,18.111972 7.98410175,18.3636591 C7.98410175,18.620095 8.18441971,18.8147963 8.45627981,18.8147963 C8.72337043,18.8100475 8.92845787,18.620095 8.92845787,18.3636591 M15.9348172,18.7150712 C15.9348172,18.4633842 15.7297297,18.263934 15.4626391,18.263934 C15.200318,18.263934 14.990461,18.4633842 14.990461,18.7150712 C14.990461,18.9715071 15.190779,19.1662084 15.4626391,19.1662084 C15.7344992,19.1614596 15.9348172,18.9715071 15.9348172,18.7150712 M22.5643879,23.1647088 L22.5739269,23.1552112 L25.4785374,23.1552112 L25.4785374,17.5943514 L24.7631161,17.5943514 L24.7631161,22.4428893 L23.0222576,22.4428893 L23.036566,22.3954011 C23.1081081,22.1912022 23.1414944,21.9775056 23.1414944,21.7495626 C23.1414944,20.5956011 22.263911,19.7218195 21.1049285,19.7218195 C19.9888712,19.7218195 19.1160572,20.6145964 19.1160572,21.7495626 C19.1160572,21.968008 19.1494436,22.1817046 19.2209857,22.3954011 L19.2352941,22.4428893 L17.809221,22.4428893 L17.809221,21.383904 C17.809221,20.9185204 17.6852146,20.5243689 17.4610493,20.267933 C17.1653418,19.9307673 16.8076312,19.7835541 16.2591415,19.7835541 L13.9984102,19.7835541 L13.9984102,19.3656586 L13.2829889,19.3656586 L13.2829889,22.4381405 L11.5612083,22.4381405 L11.5612083,17.5943514 L10.845787,17.5943514 L10.845787,23.1552112 L19.6740859,23.1552112 L19.6836248,23.1647088 C20.0604134,23.5493627 20.5659777,23.7583104 21.1049285,23.7583104 C21.6629571,23.7583104 22.1923688,23.5446138 22.5643879,23.1647088 M22.4260731,21.7448138 C22.4260731,22.4856286 21.8585056,23.0412397 21.1049285,23.0412397 C20.3895072,23.0412397 19.8314785,22.4713822 19.8314785,21.7448138 C19.8314785,21.0087478 20.3895072,20.4341415 21.1049285,20.4341415 C21.872814,20.4341415 22.4260731,20.9850037 22.4260731,21.7448138 M13.9936407,20.5006248 L16.254372,20.5006248 C16.554849,20.5006248 16.7742448,20.5861035 16.9077901,20.7523119 C17.0317965,20.9042739 17.0890302,21.0989753 17.0890302,21.383904 L17.0890302,22.4428893 L13.9936407,22.4428893 L13.9936407,20.5006248 Z M27.5389507,17.5943514 L26.8235294,17.5943514 L26.8235294,23.1552112 L27.5389507,23.1552112 L27.5389507,17.5943514 Z" id="Shape" fill="#FFFFFF"></path>
                <path d="M28.7027027,38 L1.2972973,38 C0.581875994,38 0,37.4206448 0,36.7083229 L0,27.7568108 C0,27.0444889 0.581875994,26.4651337 1.2972973,26.4651337 L28.7027027,26.4651337 C29.418124,26.4651337 30,27.0444889 30,27.7568108 L30,36.7083229 C29.9952305,37.4206448 29.418124,38 28.7027027,38" id="Path" fill="#C5992C"></path>
                <path d="M6.56756757,34.3909023 L4.74562798,28.2506873 L2.19395866,28.2506873 C3.04292528,30.796051 4.85532591,36.2476881 4.87917329,36.2476881 L8.09379968,36.2476881 L10.7313196,28.2506873 L8.20826709,28.2506873 L6.56756757,34.3909023 Z" id="Path" fill="#FFFFFF"></path>
                <polygon id="Path" fill="#FFFFFF" points="27.7965024 28.2506873 19.3402226 28.2506873 19.9745628 30.0837291 22.6788553 30.0837291 22.6788553 36.2476881 25.1065183 36.2476881 25.1065183 30.0837291 27.8012719 30.0837291"></polygon>
                <path d="M19.0302067,30.6203449 L19.2877583,31.1854536 C19.2877583,31.1854536 17.4562798,32.7145714 15.5151033,36.2524369 C15.5151033,36.2524369 14.6709062,34.7708073 14.3656598,34.3339165 L14.6661367,33.1704574 L15.5007949,34.1107223 C15.5007949,34.1059735 17.6995231,31.4893777 19.0302067,30.6203449" id="Path" fill="#045C4D"></path>
                <path d="M16.0158983,32.9995001 C16.5119237,32.4486378 17.1796502,31.7410647 17.8235294,31.1569608 C17.2893482,29.5803549 16.8314785,28.2506873 16.8219396,28.2506873 L13.6073132,28.2506873 L10.9697933,36.2476881 L13.4976153,36.2476881 L15.1335453,29.7988003 C15.1335453,29.8035491 15.572337,31.3991502 16.0158983,32.9995001" id="Path" fill="#FFFFFF"></path>
                <path d="M16.5930048,35.0794801 C16.7885533,35.7728068 16.9220986,36.2476881 16.926868,36.2476881 L19.54531,36.2476881 C19.54531,36.2476881 18.963434,34.5191202 18.3338633,32.671832 C17.8473768,33.255936 17.2416534,34.0537366 16.5930048,35.0794801" id="Path" fill="#FFFFFF"></path>
            </g>
        </g>
    </g>
</svg>