<svg id="التدريب_و_التأهيل" data-name="التدريب و التأهيل" xmlns="http://www.w3.org/2000/svg" width="56.875" height="59.348" viewBox="0 0 56.875 59.348">
  <g id="Group_75" data-name="Group 75" transform="translate(37.093 27.201)">
    <path id="Path_72" data-name="Path 72" d="M21.182,23.364a6.182,6.182,0,1,1,6.182-6.182A6.122,6.122,0,0,1,21.182,23.364Zm0-9.891a3.8,3.8,0,0,0-3.709,3.709,3.709,3.709,0,1,0,7.419,0A3.8,3.8,0,0,0,21.182,13.473Z" transform="translate(-15 -11)" fill="#fff"/>
  </g>
  <g id="Group_76" data-name="Group 76" transform="translate(4.946 22.256)">
    <path id="Path_73" data-name="Path 73" d="M13.128,11.473H3.236A1.168,1.168,0,0,1,2,10.236,1.168,1.168,0,0,1,3.236,9h9.891a1.168,1.168,0,0,1,1.236,1.236A1.168,1.168,0,0,1,13.128,11.473Z" transform="translate(-2 -9)" fill="#fff"/>
  </g>
  <g id="Group_77" data-name="Group 77" transform="translate(19.783 22.256)">
    <path id="Path_74" data-name="Path 74" d="M16.655,11.473H9.236A1.168,1.168,0,0,1,8,10.236,1.168,1.168,0,0,1,9.236,9h7.419a1.168,1.168,0,0,1,1.236,1.236A1.168,1.168,0,0,1,16.655,11.473Z" transform="translate(-8 -9)" fill="#fff"/>
  </g>
  <path id="Path_75" data-name="Path 75" d="M44.511,19.783V3.709A3.8,3.8,0,0,0,40.8,0H19.535a3.778,3.778,0,0,0-2.473.989L.989,17.063A3.778,3.778,0,0,0,0,19.535v36.1a3.8,3.8,0,0,0,3.709,3.709H35.856A.908.908,0,0,0,36.6,59.1l6.677-5.44,6.677,5.44a.908.908,0,0,0,.742.247h.495a1.36,1.36,0,0,0,.742-1.236V43.769a13.523,13.523,0,0,0,4.946-10.386A13.691,13.691,0,0,0,44.511,19.783ZM19.783,7.419H35.856a1.168,1.168,0,0,1,1.236,1.236v2.473a1.168,1.168,0,0,1-1.236,1.236H19.783ZM17.31,4.2v11.87a1.168,1.168,0,0,1-1.236,1.236H4.2ZM34.62,56.875H3.709a1.168,1.168,0,0,1-1.236-1.236V19.783h13.6a3.8,3.8,0,0,0,3.709-3.709V14.837H35.856a3.8,3.8,0,0,0,3.709-3.709V8.655a3.8,3.8,0,0,0-3.709-3.709H19.783V2.473H40.8a1.168,1.168,0,0,1,1.236,1.236V19.783A13.8,13.8,0,0,0,31.158,27.2H21.019a3.8,3.8,0,0,0-3.709,3.709v4.946a3.8,3.8,0,0,0,3.709,3.709H31.158a21.747,21.747,0,0,0,1.484,2.473H8.655a3.8,3.8,0,0,0-3.709,3.709v4.946A3.8,3.8,0,0,0,8.655,54.4H34.62ZM30.169,37.093h-9.15a1.168,1.168,0,0,1-1.236-1.236V30.911a1.168,1.168,0,0,1,1.236-1.236h9.15a19.088,19.088,0,0,0-.495,3.709A19.088,19.088,0,0,0,30.169,37.093ZM34.62,51.93H8.655a1.168,1.168,0,0,1-1.236-1.236V45.748a1.168,1.168,0,0,1,1.236-1.236H34.62Zm14.837,3.462-5.44-4.451c-.495-.495-1.236-.495-1.484,0l-5.44,4.451V45.5a13.621,13.621,0,0,0,12.364,0ZM43.275,44.511A11.128,11.128,0,1,1,54.4,33.383,11.082,11.082,0,0,1,43.275,44.511Z" fill="#fff"/>
  <g id="Group_78" data-name="Group 78" transform="translate(4.946 27.201)">
    <path id="Path_76" data-name="Path 76" d="M10.655,13.473H3.236A1.168,1.168,0,0,1,2,12.236,1.168,1.168,0,0,1,3.236,11h7.419a1.168,1.168,0,0,1,1.236,1.236A1.168,1.168,0,0,1,10.655,13.473Z" transform="translate(-2 -11)" fill="#fff"/>
  </g>
  <g id="Group_79" data-name="Group 79" transform="translate(4.946 32.147)">
    <path id="Path_77" data-name="Path 77" d="M10.655,15.473H3.236a1.236,1.236,0,1,1,0-2.473h7.419a1.236,1.236,0,1,1,0,2.473Z" transform="translate(-2 -13)" fill="#fff"/>
  </g>
  <g id="Group_80" data-name="Group 80" transform="translate(4.946 37.093)">
    <path id="Path_78" data-name="Path 78" d="M10.655,17.473H3.236a1.236,1.236,0,0,1,0-2.473h7.419a1.236,1.236,0,1,1,0,2.473Z" transform="translate(-2 -15)" fill="#fff"/>
  </g>
  <g id="Group_81" data-name="Group 81" transform="translate(22.256 17.31)">
    <path id="Path_79" data-name="Path 79" d="M20.128,9.473H10.236A1.168,1.168,0,0,1,9,8.236,1.168,1.168,0,0,1,10.236,7h9.891a1.168,1.168,0,0,1,1.236,1.236A1.168,1.168,0,0,1,20.128,9.473Z" transform="translate(-9 -7)" fill="#fff"/>
  </g>
</svg>
